<?xml version="1.0" encoding="UTF-8"?>
<svg id="Layer_1" data-name="Layer 1" xmlns="http://www.w3.org/2000/svg" viewBox="0 0 48 48">
  <defs>
    <style>
      .cls-1 {
        fill: #fff;
      }
    </style>
  </defs>
  <g>
    <path class="cls-1" d="M32.28,39.87l1.05,1.05c.05-.07.08-.15.08-.24,0-.12-.04-.22-.13-.3l-.46-.46c-.08-.08-.18-.13-.3-.13-.09,0-.18.02-.25.08Z"/>
    <g>
      <path class="cls-1" d="M28.94,43.88l-1.77,1.77.39.39,1.77-1.77-.39-.39Z"/>
      <path class="cls-1" d="M32.61,40.2l-1.77,1.77.39.39,1.77-1.77-.39-.39Z"/>
      <path class="cls-1" d="M30.77,42.04l-1.76,1.76.39.39,1.76-1.76-.39-.39Z"/>
      <path class="cls-1" d="M29.4,44.35l-1.77,1.77.39.39,1.77-1.77-.39-.39Z"/>
      <path class="cls-1" d="M27.56,46.19l-1.23,1.23c.3-.03.59-.07.89-.11l.73-.73-.39-.39Z"/>
      <path class="cls-1" d="M33.08,40.67l-1.77,1.77.39.39,1.77-1.77-.39-.39Z"/>
      <path class="cls-1" d="M31.24,42.51l-1.76,1.76.39.39,1.76-1.76-.39-.39Z"/>
      <path class="cls-1" d="M32.15,39.74l-1.77,1.77.39.39,1.77-1.77-.39-.39Z"/>
      <path class="cls-1" d="M30.31,41.58l-1.76,1.76.39.39,1.76-1.76-.39-.39Z"/>
      <path class="cls-1" d="M24.79,47.09l-.44.44c.27,0,.54-.01.81-.03l.02-.02-.39-.39Z"/>
      <path class="cls-1" d="M27.1,45.72l-1.77,1.77h.01c.27,0,.55-.02.82-.05l1.32-1.32-.39-.39Z"/>
      <path class="cls-1" d="M26.63,45.25l-1.77,1.77.39.39,1.77-1.77-.39-.39Z"/>
      <path class="cls-1" d="M28.47,43.42l-1.77,1.77.39.39,1.77-1.77-.39-.39Z"/>
    </g>
    <path class="cls-1" d="M33.67,38.48l-.76.76c-.08.08-.12.18-.13.3,0,.12.04.22.13.31l.46.46c.08.08.19.13.3.13.12,0,.22-.04.3-.13l.76-.76c.08-.08.13-.19.13-.3,0-.12-.04-.22-.13-.3l-.46-.46c-.08-.08-.18-.12-.3-.13-.12,0-.22.04-.31.12ZM33.94,38.81s.02-.01.03-.01c.01,0,.02,0,.03.01l.4.4s.01.02.01.03c0,.01,0,.02-.01.03l-.7.7s-.02.01-.03.01c-.01,0-.02,0-.03-.01l-.4-.4s-.02-.04,0-.06l.7-.7Z"/>
    <path class="cls-1" d="M35.11,37.04l-.76.76c-.08.08-.12.18-.12.3,0,.12.04.22.13.31l.46.46c.08.08.19.13.3.13.12,0,.22-.04.3-.13l.76-.76c.08-.08.13-.19.13-.3,0-.12-.04-.22-.13-.3l-.46-.46c-.08-.08-.18-.12-.3-.13-.12,0-.22.04-.31.12ZM35.38,37.37s.02-.01.03-.01c.01,0,.02,0,.03.01l.4.4s.01.02.01.03,0,.02-.01.03l-.7.7s-.02.01-.03.01c-.01,0-.02,0-.03-.01l-.4-.4s-.02-.04,0-.06l.7-.7Z"/>
    <path class="cls-1" d="M36.55,35.6l-.76.76c-.08.08-.12.18-.12.3,0,.12.04.22.13.31l.46.46c.08.08.19.13.3.13.12,0,.22-.04.3-.13l.76-.76c.08-.08.13-.19.13-.3,0-.12-.04-.22-.13-.3l-.46-.46c-.08-.08-.18-.13-.3-.13-.12,0-.22.04-.31.12ZM36.83,35.93s.02-.01.03-.01c.01,0,.02,0,.03.01l.4.4s.01.02.01.03,0,.02-.01.03l-.7.7s-.02.01-.03.01c-.01,0-.02,0-.03-.01l-.4-.4s-.02-.04,0-.06l.7-.7Z"/>
    <path class="cls-1" d="M37.99,34.16l-.76.76c-.08.08-.12.18-.12.3,0,.12.04.22.13.31l.46.46c.08.08.19.13.3.13.12,0,.22-.04.3-.13l.76-.76c.08-.08.13-.19.13-.3,0-.12-.04-.22-.13-.3l-.46-.46c-.08-.08-.18-.13-.3-.13-.12,0-.22.04-.31.12ZM38.27,34.49s.02-.01.03-.01c.01,0,.02,0,.03.01l.4.4s.01.02.01.03c0,.01,0,.02-.01.03l-.7.7s-.02.01-.03.01c-.01,0-.02,0-.03-.01l-.4-.4s-.02-.04,0-.06l.7-.7Z"/>
    <path class="cls-1" d="M39.43,32.72l-.76.76c-.08.08-.12.18-.13.3,0,.12.04.22.13.31l.46.46c.08.08.19.13.3.13.12,0,.22-.04.3-.13l.76-.76s.06-.06.08-.1c.03-.06.05-.13.05-.2,0-.12-.04-.22-.13-.3l-.46-.46c-.08-.08-.18-.13-.3-.13-.12,0-.22.04-.31.12ZM39.71,33.05s.02-.01.03-.01c.01,0,.02,0,.03.01l.4.4s.01.02.01.03c0,.01,0,.02-.01.03l-.7.7s-.02.01-.03.01c-.01,0-.02,0-.03-.01l-.4-.4s-.02-.04,0-.06l.7-.7Z"/>
    <g>
      <path class="cls-1" d="M41.91,30.91l-1.76,1.76.39.39,1.76-1.76-.39-.39Z"/>
      <path class="cls-1" d="M43.75,29.07l-1.76,1.76.39.39,1.76-1.76-.39-.39Z"/>
      <path class="cls-1" d="M45.59,27.23l-1.77,1.77.39.39,1.77-1.77-.39-.39Z"/>
      <path class="cls-1" d="M47.4,25.42l-1.74,1.74.39.39,1.28-1.28c.03-.28.05-.57.06-.85Z"/>
    </g>
  </g>
  <g>
    <path class="cls-1" d="M30.06,38.83l.74.74c-.02-.07-.06-.12-.11-.18l-.46-.46s-.02-.02-.03-.03c-.01,0-.02-.02-.03-.03,0,0-.02-.01-.03-.02-.03-.01-.05-.03-.08-.03Z"/>
    <g>
      <path class="cls-1" d="M26.55,42.67l-1.76,1.76.39.39,1.76-1.76-.39-.39Z"/>
      <path class="cls-1" d="M30.23,39l-1.76,1.76.39.39,1.76-1.76-.39-.39Z"/>
      <path class="cls-1" d="M28.39,40.83l-1.76,1.76.39.39,1.76-1.76-.39-.39Z"/>
      <path class="cls-1" d="M26.08,42.21l-1.76,1.76.39.39,1.76-1.76-.39-.39Z"/>
      <path class="cls-1" d="M24.24,44.05l-1.76,1.76.39.39,1.76-1.76-.39-.39Z"/>
      <path class="cls-1" d="M22.41,45.89l-1.48,1.48c.23.03.47.06.7.08l1.17-1.17-.39-.39Z"/>
      <path class="cls-1" d="M29.76,38.53l-1.76,1.76.39.39,1.76-1.76-.39-.39Z"/>
      <path class="cls-1" d="M27.92,40.37l-1.76,1.76.39.39,1.76-1.76-.39-.39Z"/>
      <path class="cls-1" d="M30.69,39.46l-1.76,1.76.39.39,1.76-1.76-.39-.39Z"/>
      <path class="cls-1" d="M28.85,41.3l-1.76,1.76.39.39,1.76-1.76-.39-.39Z"/>
      <path class="cls-1" d="M22.87,46.35l-1.11,1.11c.24.02.48.04.73.06l.77-.77-.39-.39Z"/>
      <path class="cls-1" d="M23.34,46.82l-.71.71c.25.01.5.03.75.03l.35-.35-.39-.39Z"/>
      <path class="cls-1" d="M24.71,44.51l-1.76,1.76.39.39,1.76-1.76-.39-.39Z"/>
      <path class="cls-1" d="M25.18,44.98l-1.76,1.76.39.39,1.76-1.76-.39-.39Z"/>
      <path class="cls-1" d="M27.01,43.14l-1.76,1.76.39.39,1.76-1.76-.39-.39Z"/>
    </g>
    <path class="cls-1" d="M32.25,38.25c0-.12-.04-.22-.13-.3l-.46-.46c-.08-.08-.19-.13-.3-.13-.12,0-.22.04-.3.13l-.76.76c-.08.08-.13.19-.13.3,0,.12.04.22.13.3l.46.46c.08.08.19.13.31.13.12,0,.22-.04.3-.13l.76-.76c.08-.08.13-.19.12-.31ZM31.09,38.98s-.04.02-.06,0l-.4-.4s-.01-.02-.01-.03c0-.01,0-.02.01-.03l.7-.7s.02-.01.03-.01c.01,0,.02,0,.03.01l.4.4s.01.02.01.03c0,.01,0,.02-.01.03l-.7.7Z"/>
    <path class="cls-1" d="M33.69,36.8c0-.12-.04-.22-.13-.3l-.45-.45c-.08-.08-.19-.13-.3-.13-.12,0-.22.04-.3.13l-.76.76c-.08.08-.13.19-.13.3,0,.12.04.22.13.3l.45.45c.08.08.19.13.31.13.12,0,.22-.04.3-.12l.76-.76c.08-.08.13-.19.13-.31ZM32.53,37.53s-.04.02-.06,0l-.4-.4s-.01-.02-.01-.03c0-.01,0-.02.01-.03l.7-.7s.02-.01.03-.01c.01,0,.02,0,.03.01l.4.4s.01.02.01.03c0,.01,0,.02-.01.03l-.7.7Z"/>
    <path class="cls-1" d="M35.13,35.36c0-.12-.04-.22-.13-.3l-.45-.45c-.08-.08-.19-.13-.3-.13-.12,0-.22.04-.3.13l-.76.76c-.08.08-.13.19-.13.3,0,.12.04.22.13.3l.45.45c.08.08.19.13.31.13.12,0,.22-.04.3-.12l.76-.76c.08-.08.13-.19.12-.31ZM33.98,36.09s-.04.02-.06,0l-.4-.4s-.01-.02-.01-.03c0-.01,0-.02.01-.03l.7-.7s.02-.01.03-.01c.01,0,.02,0,.03.01l.4.4s.01.02.01.03c0,.01,0,.02-.01.03l-.7.7Z"/>
    <path class="cls-1" d="M36.57,33.92c0-.12-.04-.22-.13-.3l-.46-.46c-.08-.08-.19-.13-.3-.13-.12,0-.22.04-.3.13l-.76.76c-.08.08-.13.19-.13.3,0,.12.04.22.13.3l.46.46c.08.08.19.13.31.13.12,0,.22-.04.3-.12l.76-.76c.08-.08.13-.19.12-.31ZM35.42,34.65s-.04.02-.06,0l-.4-.4s-.01-.02-.01-.03c0-.01,0-.02.01-.03l.7-.7s.02-.01.03-.01c.01,0,.02,0,.03.01l.4.4s.01.02.01.03c0,.01,0,.02-.01.03l-.7.7Z"/>
    <path class="cls-1" d="M38.02,32.48c0-.12-.04-.22-.13-.3l-.46-.46c-.08-.08-.19-.13-.3-.13-.12,0-.22.04-.3.13l-.76.76c-.08.08-.13.19-.13.3,0,.12.04.22.13.3l.46.46c.08.08.19.13.31.13.12,0,.22-.04.3-.12l.76-.76c.08-.08.13-.19.12-.31ZM36.86,33.21s-.04.02-.06,0l-.4-.4s-.01-.02-.01-.03c0-.01,0-.02.01-.03l.7-.7s.02-.01.03-.01c.01,0,.02,0,.03.01l.4.4s.01.02.01.03c0,.01,0,.02-.01.03l-.7.7Z"/>
    <path class="cls-1" d="M39.44,31.15s.01-.08.01-.12c0-.12-.04-.22-.13-.3l-.46-.46c-.08-.08-.19-.13-.3-.13-.12,0-.22.04-.3.13l-.76.76c-.08.08-.13.19-.13.3,0,.12.04.22.13.3l.46.46c.08.08.19.13.31.13.12,0,.22-.04.3-.12l.76-.76c.05-.05.09-.12.11-.19ZM38.3,31.77s-.04.02-.06,0l-.4-.4s-.01-.02-.01-.03c0-.01,0-.02.01-.03l.7-.7s.02-.01.03-.01c.01,0,.02,0,.03.01l.4.4s.01.02.01.03c0,.01,0,.02-.01.03l-.7.7Z"/>
    <g>
      <path class="cls-1" d="M40.75,28.47l-1.77,1.77.39.39,1.77-1.77-.39-.39Z"/>
      <path class="cls-1" d="M42.59,26.63l-1.77,1.77.39.39,1.77-1.77-.39-.39Z"/>
      <path class="cls-1" d="M44.42,24.79l-1.76,1.76.39.39,1.76-1.76-.39-.39Z"/>
      <path class="cls-1" d="M46.26,22.95l-1.76,1.76.39.39,1.76-1.76-.39-.39Z"/>
      <path class="cls-1" d="M47.36,21.85l-1.03,1.03.39.39.69-.69c-.01-.24-.03-.49-.06-.73Z"/>
    </g>
  </g>
  <g>
    <path class="cls-1" d="M28.29,36.68l-.67.67.3.3.64-.64s.02-.01.03-.01c.01,0,.02,0,.03.01l.4.4s.01.02.01.03c0,.01,0,.02-.01.03l-.64.64.3.3.67-.67c.08-.08.13-.19.13-.3,0-.12-.04-.22-.13-.3l-.46-.46c-.08-.08-.18-.13-.3-.13-.12,0-.22.04-.3.12Z"/>
    <g>
      <path class="cls-1" d="M24.27,41.37l-1.77,1.77.39.39,1.77-1.77-.39-.39Z"/>
      <path class="cls-1" d="M18.75,46.88l-.07.07c.06.01.11.03.17.04l-.1-.1Z"/>
      <path class="cls-1" d="M27.95,37.69l-1.76,1.76.39.39,1.76-1.76-.39-.39Z"/>
      <path class="cls-1" d="M26.11,39.53l-1.76,1.76.39.39,1.76-1.76-.39-.39Z"/>
      <path class="cls-1" d="M24.74,41.83l-1.77,1.77.39.39,1.77-1.77-.39-.39Z"/>
      <path class="cls-1" d="M22.9,43.67l-1.76,1.76.39.39,1.76-1.76-.39-.39Z"/>
      <path class="cls-1" d="M21.06,45.51l-1.6,1.6c.22.04.44.08.66.12l1.33-1.33-.39-.39Z"/>
      <path class="cls-1" d="M28.41,38.16l-1.76,1.76.39.39,1.76-1.76-.39-.39Z"/>
      <path class="cls-1" d="M26.58,40l-1.76,1.76.39.39,1.76-1.76-.39-.39Z"/>
      <path class="cls-1" d="M18.29,46.42l-.35.35c.21.06.42.11.63.16l.11-.11-.39-.39Z"/>
      <path class="cls-1" d="M27.48,37.22l-1.76,1.76.39.39,1.76-1.76-.39-.39Z"/>
      <path class="cls-1" d="M25.64,39.06l-1.76,1.76.39.39,1.76-1.76-.39-.39Z"/>
      <path class="cls-1" d="M20.59,45.05l-1.76,1.76.22.22c.1.02.19.04.29.06l1.65-1.65-.39-.39Z"/>
      <path class="cls-1" d="M20.13,44.58l-1.76,1.76.39.39,1.76-1.76-.39-.39Z"/>
      <path class="cls-1" d="M22.43,43.21l-1.76,1.76.39.39,1.76-1.76-.39-.39Z"/>
      <path class="cls-1" d="M21.97,42.74l-1.76,1.76.39.39,1.76-1.76-.39-.39Z"/>
      <path class="cls-1" d="M23.81,40.9l-1.77,1.77.39.39,1.77-1.77-.39-.39Z"/>
    </g>
    <path class="cls-1" d="M29.72,35.24l-.76.76c-.08.08-.12.18-.12.3,0,.12.04.22.13.31l.46.46c.08.08.19.13.3.13.12,0,.22-.04.3-.13l.76-.76c.08-.08.13-.19.13-.3,0-.12-.04-.22-.13-.3l-.46-.46c-.08-.08-.18-.13-.3-.13-.12,0-.22.04-.31.12ZM30,35.58s.02-.01.03-.01c.01,0,.02,0,.03.01l.4.4s.01.02.01.03c0,.01,0,.02-.01.03l-.7.7s-.02.01-.03.01c-.01,0-.02,0-.03-.01l-.4-.4s-.02-.04,0-.06l.7-.7Z"/>
    <path class="cls-1" d="M31.17,33.8l-.76.76c-.08.08-.12.18-.12.3,0,.12.04.22.13.31l.46.46c.08.08.19.13.3.13.12,0,.22-.04.3-.13l.76-.76c.08-.08.13-.19.13-.3,0-.12-.04-.22-.13-.3l-.46-.46c-.08-.08-.18-.13-.3-.13-.12,0-.22.04-.31.12ZM31.44,34.14s.02-.01.03-.01c.01,0,.02,0,.03.01l.4.4s.01.02.01.03c0,.01,0,.02-.01.03l-.7.7s-.02.01-.03.01-.02,0-.03-.01l-.4-.4s-.02-.04,0-.06l.7-.7Z"/>
    <path class="cls-1" d="M32.61,32.36l-.76.76c-.08.08-.12.18-.12.3,0,.12.04.22.13.31l.46.46c.08.08.19.13.3.13s.22-.04.3-.13l.76-.76c.08-.08.13-.19.13-.3s-.04-.22-.13-.3l-.46-.46c-.08-.08-.18-.12-.3-.13s-.22.04-.31.12ZM32.88,32.7s.02-.01.03-.01c.01,0,.02,0,.03.01l.4.4s.01.02.01.03c0,.01,0,.02-.01.03l-.7.7s-.02.01-.03.01c-.01,0-.02,0-.03-.01l-.4-.4s-.02-.04,0-.06l.7-.7Z"/>
    <path class="cls-1" d="M34.05,30.92l-.76.76c-.08.08-.12.18-.12.3,0,.12.04.22.13.31l.46.46c.08.08.19.13.3.13.12,0,.22-.04.3-.13l.76-.76c.08-.08.13-.19.13-.3,0-.12-.04-.22-.13-.3l-.46-.46c-.08-.08-.18-.13-.3-.13-.12,0-.22.04-.31.12ZM34.32,31.25s.02-.01.03-.01c.01,0,.02,0,.03.01l.4.4s.01.02.01.03,0,.02-.01.03l-.7.7s-.02.01-.03.01c-.01,0-.02,0-.03-.01l-.4-.4s-.02-.04,0-.06l.7-.7Z"/>
    <path class="cls-1" d="M35.49,29.48l-.76.76c-.08.08-.12.18-.12.3,0,.12.04.22.13.31l.46.46c.08.08.19.13.3.13.12,0,.22-.04.3-.13l.76-.76c.08-.08.13-.19.13-.3,0-.12-.04-.22-.13-.3l-.46-.46c-.08-.08-.18-.13-.3-.13-.12,0-.22.04-.31.12ZM35.77,29.81s.02-.01.03-.01c.01,0,.02,0,.03.01l.4.4s.01.02.01.03c0,.01,0,.02-.01.03l-.7.7s-.02.01-.03.01c-.01,0-.02,0-.03-.01l-.4-.4s-.02-.04,0-.06l.7-.7Z"/>
    <path class="cls-1" d="M36.93,28.04l-.76.76c-.08.08-.12.18-.13.3,0,.12.04.22.13.31l.46.46c.08.08.19.13.3.13.12,0,.22-.04.3-.13l.76-.76c.08-.08.12-.17.12-.27h0s0-.02,0-.03c0-.12-.04-.22-.13-.3l-.46-.46c-.08-.08-.18-.13-.3-.13-.12,0-.22.04-.31.12ZM37.21,28.37s.02-.01.03-.01c.01,0,.02,0,.03.01l.4.4s.01.02.01.03c0,.01,0,.02-.01.03l-.7.7s-.02.01-.03.01c-.01,0-.02,0-.03-.01l-.4-.4s-.02-.04,0-.06l.7-.7Z"/>
    <path class="cls-1" d="M39.41,26.23l-1.76,1.76.39.39,1.76-1.76-.39-.39Z"/>
    <path class="cls-1" d="M41.25,24.39l-1.76,1.76.39.39,1.76-1.76-.39-.39Z"/>
    <path class="cls-1" d="M43.09,22.55l-1.77,1.77.39.39,1.77-1.77-.39-.39Z"/>
    <path class="cls-1" d="M44.93,20.71l-1.77,1.77.39.39,1.77-1.77-.39-.39Z"/>
    <path class="cls-1" d="M46.77,18.88l-1.76,1.76.39.39,1.6-1.6c-.03-.14-.06-.28-.09-.42l-.14-.14Z"/>
  </g>
  <g>
    <path class="cls-1" d="M25.44,35.93l1.06,1.06c.05-.07.08-.15.08-.25,0-.12-.04-.22-.13-.3l-.46-.46c-.08-.08-.18-.13-.3-.13-.09,0-.18.03-.25.08Z"/>
    <g>
      <path class="cls-1" d="M22.09,39.94l-1.77,1.77.39.39,1.77-1.77-.39-.39Z"/>
      <path class="cls-1" d="M16.58,45.46l-.67.67c.19.07.39.14.58.2l.48-.48-.39-.39Z"/>
      <path class="cls-1" d="M25.77,36.26l-1.76,1.76.39.39,1.76-1.76-.39-.39Z"/>
      <path class="cls-1" d="M23.93,38.1l-1.76,1.76.39.39,1.76-1.76-.39-.39Z"/>
      <path class="cls-1" d="M22.56,40.4l-1.77,1.77.39.39,1.77-1.77-.39-.39Z"/>
      <path class="cls-1" d="M20.72,42.24l-1.76,1.76.39.39,1.76-1.76-.39-.39Z"/>
      <path class="cls-1" d="M18.88,44.08l-1.77,1.77.39.39,1.77-1.77-.39-.39Z"/>
      <path class="cls-1" d="M17.04,45.92l-.44.44c.2.07.4.13.6.19l.24-.24-.39-.39Z"/>
      <path class="cls-1" d="M26.24,36.73l-1.76,1.76.39.39,1.76-1.76-.39-.39Z"/>
      <path class="cls-1" d="M24.4,38.57l-1.76,1.76.39.39,1.76-1.76-.39-.39Z"/>
      <path class="cls-1" d="M16.11,44.99l-.88.88c.19.08.38.15.57.22l.7-.7-.39-.39Z"/>
      <path class="cls-1" d="M25.3,35.79l-1.76,1.76.39.39,1.76-1.76-.39-.39Z"/>
      <path class="cls-1" d="M23.47,37.63l-1.76,1.76.39.39,1.76-1.76-.39-.39Z"/>
      <path class="cls-1" d="M18.42,43.62l-1.77,1.77.39.39,1.77-1.77-.39-.39Z"/>
      <path class="cls-1" d="M17.95,43.15l-1.77,1.77.39.39,1.77-1.77-.39-.39Z"/>
      <path class="cls-1" d="M20.25,41.78l-1.76,1.76.39.39,1.76-1.76-.39-.39Z"/>
      <path class="cls-1" d="M19.79,41.31l-1.76,1.76.39.39,1.76-1.76-.39-.39Z"/>
      <path class="cls-1" d="M21.63,39.47l-1.77,1.77.39.39,1.77-1.77-.39-.39Z"/>
    </g>
    <path class="cls-1" d="M26.83,34.53l-.76.76c-.08.08-.12.18-.12.3,0,.12.04.22.13.3l.46.46c.08.08.19.13.3.13.12,0,.22-.04.3-.13l.76-.76c.08-.08.13-.19.13-.3,0-.12-.04-.22-.13-.3l-.46-.46c-.08-.08-.18-.12-.3-.13-.12,0-.22.04-.31.12ZM27.1,34.87s.02-.01.03-.01c.01,0,.02,0,.03.01l.4.4s.01.02.01.03c0,.01,0,.02-.01.03l-.7.7s-.02.01-.03.01c-.01,0-.02,0-.03-.01l-.4-.4s-.02-.04,0-.06l.7-.7Z"/>
    <path class="cls-1" d="M28.27,33.09l-.76.76c-.08.08-.12.18-.12.3,0,.12.04.22.13.3l.46.46c.08.08.19.13.3.13.12,0,.22-.04.3-.13l.76-.76c.08-.08.13-.19.13-.3,0-.12-.04-.22-.13-.3l-.46-.46c-.08-.08-.18-.13-.3-.13-.12,0-.22.04-.31.12ZM28.54,33.43s.02-.01.03-.01c.01,0,.02,0,.03.01l.4.4s.01.02.01.03c0,.01,0,.02-.01.03l-.7.7s-.02.01-.03.01c-.01,0-.02,0-.03-.01l-.4-.4s-.02-.04,0-.06l.7-.7Z"/>
    <path class="cls-1" d="M29.71,31.65l-.76.76c-.08.08-.13.18-.12.3,0,.12.04.22.13.31l.45.45c.08.08.19.13.3.13.12,0,.22-.04.3-.13l.76-.76c.08-.08.13-.19.13-.3,0-.12-.04-.22-.13-.3l-.45-.45c-.08-.08-.18-.13-.3-.13-.12,0-.22.04-.31.12ZM29.98,31.99s.02-.01.03-.01.02,0,.03.01l.4.4s.01.02.01.03c0,.01,0,.02-.01.03l-.7.7s-.02.01-.03.01c-.01,0-.02,0-.03-.01l-.4-.4s-.02-.04,0-.06l.7-.7Z"/>
    <path class="cls-1" d="M31.15,30.21l-.76.76c-.08.08-.13.18-.12.3,0,.12.04.22.13.31l.46.46c.08.08.19.13.3.13.12,0,.22-.04.3-.13l.76-.76c.08-.08.13-.19.13-.3,0-.12-.04-.22-.13-.3l-.46-.46c-.08-.08-.19-.13-.3-.13-.12,0-.22.04-.31.12ZM31.43,30.54s.02-.01.03-.01c.01,0,.02,0,.03.01l.4.4s.01.02.01.03c0,.01,0,.02-.01.03l-.7.7s-.02.01-.03.01c-.01,0-.02,0-.03-.01l-.4-.4s-.02-.04,0-.06l.7-.7Z"/>
    <path class="cls-1" d="M32.59,28.77l-.76.76c-.08.08-.13.18-.12.3,0,.12.04.22.13.31l.46.46c.08.08.19.13.3.13.12,0,.22-.04.3-.13l.76-.76c.08-.08.13-.19.13-.3,0-.12-.04-.22-.13-.3l-.46-.46c-.08-.08-.18-.13-.3-.13-.12,0-.22.04-.31.12ZM32.87,29.1s.02-.01.03-.01c.01,0,.02,0,.03.01l.4.4s.01.02.01.03c0,.01,0,.02-.01.03l-.7.7s-.02.01-.03.01c-.01,0-.02,0-.03-.01l-.4-.4s-.02-.04,0-.06l.7-.7Z"/>
    <path class="cls-1" d="M34.04,27.33l-.76.76c-.08.08-.13.18-.13.3,0,.12.04.22.13.31l.46.46c.08.08.19.13.3.13.12,0,.22-.04.3-.13l.76-.76c.08-.08.13-.19.13-.3,0-.12-.04-.22-.13-.3l-.46-.46c-.08-.08-.18-.13-.3-.13-.12,0-.22.04-.31.12ZM34.31,27.66s.02-.01.03-.01c.01,0,.02,0,.03.01l.4.4s.01.02.01.03c0,.01,0,.02-.01.03l-.7.7s-.02.01-.03.01c-.01,0-.02,0-.03-.01l-.4-.4s-.02-.04,0-.06l.7-.7Z"/>
    <path class="cls-1" d="M35.48,25.89l-.76.76c-.08.08-.13.18-.13.3,0,.12.04.22.13.31l.46.46c.08.08.19.13.3.13.12,0,.22-.04.3-.13l.76-.76c.08-.08.13-.19.13-.3,0-.01,0-.03,0-.04,0-.1-.05-.19-.12-.27l-.46-.46c-.08-.08-.18-.13-.3-.13-.12,0-.22.04-.31.12ZM35.75,26.22s.02-.01.03-.01.02,0,.03.01l.4.4s.01.02.01.03,0,.02-.01.03l-.7.7s-.02.01-.03.01c-.01,0-.02,0-.03-.01l-.4-.4s-.02-.04,0-.06l.7-.7Z"/>
    <g>
      <path class="cls-1" d="M37.95,24.08l-1.76,1.76.39.39,1.76-1.76-.39-.39Z"/>
      <path class="cls-1" d="M39.79,22.24l-1.76,1.76.39.39,1.76-1.76-.39-.39Z"/>
      <path class="cls-1" d="M41.63,20.4l-1.76,1.76.39.39,1.76-1.76-.39-.39Z"/>
      <path class="cls-1" d="M43.47,18.56l-1.77,1.77.39.39,1.77-1.77-.39-.39Z"/>
      <path class="cls-1" d="M45.31,16.72l-1.77,1.77.39.39,1.77-1.77-.39-.39Z"/>
      <path class="cls-1" d="M46.03,16l-.65.65.39.39.46-.46c-.07-.19-.13-.39-.2-.58Z"/>
    </g>
  </g>
  <g>
    <path class="cls-1" d="M23.86,33.91l-.45.45.3.3.42-.42s.02-.01.03-.01c.01,0,.02,0,.03.01l.4.4s.01.02.01.03c0,.01,0,.02-.01.03l-.42.42.3.3.45-.45c.08-.08.13-.19.13-.3,0-.12-.04-.22-.13-.3l-.46-.46c-.08-.08-.18-.13-.3-.13-.12,0-.22.04-.31.12Z"/>
    <g>
      <path class="cls-1" d="M20.06,38.38l-1.77,1.77.39.39,1.77-1.77-.39-.39Z"/>
      <path class="cls-1" d="M14.55,43.89l-1.14,1.14c.17.09.35.17.53.26l1.01-1.01-.39-.39Z"/>
      <path class="cls-1" d="M23.74,34.7l-1.76,1.76.39.39,1.76-1.76-.39-.39Z"/>
      <path class="cls-1" d="M21.9,36.54l-1.76,1.76.39.39,1.76-1.76-.39-.39Z"/>
      <path class="cls-1" d="M20.53,38.84l-1.77,1.77.39.39,1.77-1.77-.39-.39Z"/>
      <path class="cls-1" d="M18.69,40.68l-1.76,1.76.39.39,1.76-1.76-.39-.39Z"/>
      <path class="cls-1" d="M16.85,42.52l-1.76,1.76.39.39,1.76-1.76-.39-.39Z"/>
      <path class="cls-1" d="M15.01,44.36l-.98.98c.18.08.36.17.54.24l.83-.83-.39-.39Z"/>
      <path class="cls-1" d="M24.2,35.16l-1.76,1.76.39.39,1.76-1.76-.39-.39Z"/>
      <path class="cls-1" d="M22.37,37l-1.76,1.76.39.39,1.76-1.76-.39-.39Z"/>
      <path class="cls-1" d="M14.08,43.43l-1.29,1.29c.17.09.34.18.51.27l1.17-1.17-.39-.39Z"/>
      <path class="cls-1" d="M23.27,34.23l-1.76,1.76.39.39,1.76-1.76-.39-.39Z"/>
      <path class="cls-1" d="M21.43,36.07l-1.76,1.76.39.39,1.76-1.76-.39-.39Z"/>
      <path class="cls-1" d="M16.38,42.05l-1.76,1.76.39.39,1.76-1.76-.39-.39Z"/>
      <path class="cls-1" d="M15.92,41.59l-1.76,1.76.39.39,1.76-1.76-.39-.39Z"/>
      <path class="cls-1" d="M18.22,40.22l-1.76,1.76.39.39,1.76-1.76-.39-.39Z"/>
      <path class="cls-1" d="M17.76,39.75l-1.76,1.76.39.39,1.76-1.76-.39-.39Z"/>
      <path class="cls-1" d="M19.6,37.91l-1.77,1.77.39.39,1.77-1.77-.39-.39Z"/>
    </g>
    <path class="cls-1" d="M25.29,32.47l-.76.76c-.08.08-.13.18-.12.3,0,.12.04.22.13.31l.46.46c.08.08.19.13.3.13.12,0,.22-.04.3-.13l.76-.76c.08-.08.13-.19.13-.3,0-.12-.04-.22-.13-.3l-.46-.46c-.08-.08-.18-.13-.3-.13-.12,0-.22.04-.31.12ZM25.57,32.8s.02-.01.03-.01c.01,0,.02,0,.03.01l.4.4s.01.02.01.03c0,.01,0,.02-.01.03l-.7.7s-.02.01-.03.01c-.01,0-.02,0-.03-.01l-.4-.4s-.02-.04,0-.06l.7-.7Z"/>
    <path class="cls-1" d="M26.73,31.03l-.76.76c-.08.08-.13.18-.12.3,0,.12.04.22.13.31l.46.46c.08.08.19.13.3.13.12,0,.22-.04.3-.13l.76-.76c.08-.08.13-.19.13-.3,0-.12-.04-.22-.13-.3l-.46-.46c-.08-.08-.19-.13-.3-.13-.12,0-.22.04-.31.12ZM27.01,31.36s.02-.01.03-.01c.01,0,.02,0,.03.01l.4.4s.01.02.01.03c0,.01,0,.02-.01.03l-.7.7s-.02.01-.03.01-.02,0-.03-.01l-.4-.4s-.02-.04,0-.06l.7-.7Z"/>
    <path class="cls-1" d="M28.18,29.59l-.76.76c-.08.08-.12.18-.12.3,0,.12.04.22.13.31l.46.46c.08.08.19.13.3.13.12,0,.22-.04.3-.13l.76-.76c.08-.08.13-.19.13-.3,0-.12-.04-.22-.13-.3l-.46-.46c-.08-.08-.18-.13-.3-.13-.12,0-.22.04-.31.12ZM28.45,29.92s.02-.01.03-.01c.01,0,.02,0,.03.01l.4.4s.01.02.01.03c0,.01,0,.02-.01.03l-.7.7s-.02.01-.03.01c-.01,0-.02,0-.03-.01l-.4-.4s-.02-.04,0-.06l.7-.7Z"/>
    <path class="cls-1" d="M29.62,28.15l-.76.76c-.08.08-.12.18-.12.3,0,.12.04.22.13.31l.46.46c.08.08.19.13.3.13.12,0,.22-.04.3-.13l.76-.76c.08-.08.13-.19.13-.3,0-.12-.04-.22-.13-.3l-.46-.46c-.08-.08-.18-.13-.3-.13-.12,0-.22.04-.31.12ZM29.89,28.48s.02-.01.03-.01c.01,0,.02,0,.03.01l.4.4s.01.02.01.03c0,.01,0,.02-.01.03l-.7.7s-.02.01-.03.01c-.01,0-.02,0-.03-.01l-.4-.4s-.02-.04,0-.06l.7-.7Z"/>
    <path class="cls-1" d="M31.06,26.71l-.76.76c-.08.08-.12.18-.13.3,0,.12.04.22.13.31l.46.46c.08.08.19.13.3.13.12,0,.22-.04.3-.13l.76-.76c.08-.08.13-.19.13-.3,0-.12-.04-.22-.13-.3l-.46-.46c-.08-.08-.18-.13-.3-.13-.12,0-.22.04-.31.12ZM31.33,27.04s.02-.01.03-.01c.01,0,.02,0,.03.01l.4.4s.01.02.01.03c0,.01,0,.02-.01.03l-.7.7s-.02.01-.03.01c-.01,0-.02,0-.03-.01l-.4-.4s-.02-.04,0-.06l.7-.7Z"/>
    <path class="cls-1" d="M32.5,25.26l-.76.76c-.08.08-.12.18-.13.3,0,.12.04.22.13.31l.46.46c.08.08.19.13.3.13.12,0,.22-.04.3-.13l.76-.76c.08-.08.13-.19.13-.3,0-.12-.04-.22-.13-.3l-.46-.46c-.08-.08-.18-.13-.3-.13-.12,0-.22.04-.31.12ZM32.77,25.6s.02-.01.03-.01c.01,0,.02,0,.03.01l.4.4s.01.02.01.03c0,.01,0,.02-.01.03l-.7.7s-.02.01-.03.01c-.01,0-.02,0-.03-.01l-.4-.4s-.02-.04,0-.06l.7-.7Z"/>
    <path class="cls-1" d="M33.94,23.82l-.76.76c-.08.08-.12.18-.12.3,0,.12.04.22.13.31l.46.46c.08.08.19.13.3.13.12,0,.22-.04.3-.13l.76-.76c.08-.08.13-.19.13-.3,0-.03,0-.05,0-.08-.01-.08-.05-.16-.12-.22l-.46-.46c-.08-.08-.18-.13-.3-.13-.12,0-.22.04-.31.12ZM34.22,24.16s.02-.01.03-.01c.01,0,.02,0,.03.01l.4.4s.01.02.01.03c0,.01,0,.02-.01.03l-.7.7s-.02.01-.03.01c-.01,0-.02,0-.03-.01l-.4-.4s-.02-.04,0-.06l.7-.7Z"/>
    <g>
      <path class="cls-1" d="M36.42,22.02l-1.76,1.76.39.39,1.76-1.76-.39-.39Z"/>
      <path class="cls-1" d="M38.26,20.18l-1.76,1.76.39.39,1.76-1.76-.39-.39Z"/>
      <path class="cls-1" d="M40.1,18.34l-1.76,1.76.39.39,1.76-1.76-.39-.39Z"/>
      <path class="cls-1" d="M41.94,16.5l-1.76,1.76.39.39,1.76-1.76-.39-.39Z"/>
      <path class="cls-1" d="M43.78,14.66l-1.76,1.76.39.39,1.76-1.76-.39-.39Z"/>
      <path class="cls-1" d="M44.95,13.49l-1.1,1.1.39.39.96-.96c-.08-.18-.17-.35-.26-.53Z"/>
    </g>
  </g>
  <g>
    <path class="cls-1" d="M22.22,31.95l-.76.76.33.33s-.01-.04,0-.06l.7-.7s.02-.01.03-.01c.01,0,.02,0,.03.01l.4.4s.01.02.01.03c0,.01,0,.02-.01.03l-.7.7s-.02.01-.03.01c-.01,0-.02,0-.03-.01l.33.33.76-.76c.08-.08.13-.19.13-.3,0-.12-.04-.22-.13-.3l-.46-.46c-.08-.08-.18-.13-.3-.13-.12,0-.22.04-.31.12Z"/>
    <path class="cls-1" d="M22.22,31.95l-.76.76.33.33s-.01-.04,0-.06l.7-.7s.02-.01.03-.01c.01,0,.02,0,.03.01l.4.4s.01.02.01.03c0,.01,0,.02-.01.03l-.7.7s-.02.01-.03.01c-.01,0-.02,0-.03-.01l.33.33.76-.76c.08-.08.13-.19.13-.3,0-.12-.04-.22-.13-.3l-.46-.46c-.08-.08-.18-.13-.3-.13-.12,0-.22.04-.31.12Z"/>
    <g>
      <path class="cls-1" d="M18.11,36.72l-1.76,1.76.39.39,1.76-1.76-.39-.39Z"/>
      <path class="cls-1" d="M12.6,42.24l-1.49,1.49c.16.1.32.21.48.31l1.4-1.4-.39-.39Z"/>
      <path class="cls-1" d="M21.79,33.04l-1.76,1.76.39.39,1.76-1.76-.39-.39Z"/>
      <path class="cls-1" d="M19.95,34.88l-1.76,1.76.39.39,1.76-1.76-.39-.39Z"/>
      <path class="cls-1" d="M18.58,37.19l-1.76,1.76.39.39,1.76-1.76-.39-.39Z"/>
      <path class="cls-1" d="M16.74,39.03l-1.76,1.76.39.39,1.76-1.76-.39-.39Z"/>
      <path class="cls-1" d="M14.9,40.87l-1.77,1.77.39.39,1.77-1.77-.39-.39Z"/>
      <path class="cls-1" d="M13.06,42.7l-1.38,1.38c.16.1.33.2.49.29l1.28-1.28-.39-.39Z"/>
      <path class="cls-1" d="M22.26,33.51l-1.76,1.76.39.39,1.76-1.76-.39-.39Z"/>
      <path class="cls-1" d="M20.42,35.35l-1.76,1.76.39.39,1.76-1.76-.39-.39Z"/>
      <path class="cls-1" d="M12.13,41.77l-1.58,1.58c.15.11.31.21.47.32l1.5-1.5-.39-.39Z"/>
      <path class="cls-1" d="M21.33,32.58l-1.76,1.76.39.39,1.76-1.76-.39-.39Z"/>
      <path class="cls-1" d="M19.49,34.42l-1.76,1.76.39.39,1.76-1.76-.39-.39Z"/>
      <path class="cls-1" d="M14.44,40.4l-1.77,1.77.39.39,1.77-1.77-.39-.39Z"/>
      <path class="cls-1" d="M13.97,39.93l-1.77,1.77.39.39,1.77-1.77-.39-.39Z"/>
      <path class="cls-1" d="M16.28,38.56l-1.76,1.76.39.39,1.76-1.76-.39-.39Z"/>
      <path class="cls-1" d="M15.81,38.09l-1.76,1.76.39.39,1.76-1.76-.39-.39Z"/>
      <path class="cls-1" d="M17.65,36.26l-1.76,1.76.39.39,1.76-1.76-.39-.39Z"/>
    </g>
    <path class="cls-1" d="M23.66,30.51l-.76.76c-.08.08-.12.18-.12.3,0,.12.04.22.13.31l.45.45c.08.08.19.13.3.13.12,0,.22-.04.3-.13l.76-.76c.08-.08.13-.19.13-.3,0-.12-.04-.22-.13-.3l-.45-.45c-.08-.08-.18-.13-.3-.13-.12,0-.22.04-.31.12ZM23.93,30.84s.02-.01.03-.01.02,0,.03.01l.4.4s.01.02.01.03c0,.01,0,.02-.01.03l-.7.7s-.02.01-.03.01c-.01,0-.02,0-.03-.01l-.4-.4s-.02-.04,0-.06l.7-.7Z"/>
    <path class="cls-1" d="M25.1,29.07l-.76.76c-.08.08-.12.18-.12.3,0,.12.04.22.13.31l.45.45c.08.08.19.13.3.13.12,0,.22-.04.3-.13l.76-.76c.08-.08.13-.19.13-.3,0-.12-.04-.22-.13-.3l-.45-.45c-.08-.08-.18-.13-.3-.13-.12,0-.22.04-.31.12ZM25.38,29.4s.02-.01.03-.01c.01,0,.02,0,.03.01l.4.4s.01.02.01.03c0,.01,0,.02-.01.03l-.7.7s-.02.01-.03.01c-.01,0-.02,0-.03-.01l-.4-.4s-.02-.04,0-.06l.7-.7Z"/>
    <path class="cls-1" d="M26.55,27.63l-.76.76c-.08.08-.13.18-.13.3,0,.12.04.22.13.31l.46.46c.08.08.19.13.3.13.12,0,.22-.04.3-.13l.76-.76c.08-.08.13-.19.13-.3,0-.12-.04-.22-.13-.3l-.46-.46c-.08-.08-.18-.13-.3-.13-.12,0-.22.04-.31.12ZM26.82,27.96s.02-.01.03-.01c.01,0,.02,0,.03.01l.4.4s.01.02.01.03c0,.01,0,.02-.01.03l-.7.7s-.02.01-.03.01c-.01,0-.02,0-.03-.01l-.4-.4s-.02-.04,0-.06l.7-.7Z"/>
    <path class="cls-1" d="M27.99,26.19l-.76.76c-.08.08-.12.18-.12.3,0,.12.04.22.13.31l.46.46c.08.08.19.13.3.13.12,0,.22-.04.3-.13l.76-.76c.08-.08.13-.19.13-.3,0-.12-.04-.22-.13-.3l-.46-.46c-.08-.08-.18-.13-.3-.13-.12,0-.22.04-.31.12ZM28.26,26.52s.02-.01.03-.01c.01,0,.02,0,.03.01l.4.4s.01.02.01.03c0,.01,0,.02-.01.03l-.7.7s-.02.01-.03.01-.02,0-.03-.01l-.4-.4s-.02-.04,0-.06l.7-.7Z"/>
    <path class="cls-1" d="M29.43,24.75l-.76.76c-.08.08-.12.18-.12.3,0,.12.04.22.13.31l.46.46c.08.08.19.13.3.13.12,0,.22-.04.3-.13l.76-.76c.08-.08.13-.19.13-.3,0-.12-.04-.22-.13-.3l-.46-.46c-.08-.08-.18-.13-.3-.13-.12,0-.22.04-.31.12ZM29.7,25.08s.02-.01.03-.01c.01,0,.02,0,.03.01l.4.4s.01.02.01.03c0,.01,0,.02-.01.03l-.7.7s-.02.01-.03.01c-.01,0-.02,0-.03-.01l-.4-.4s-.02-.04,0-.06l.7-.7Z"/>
    <path class="cls-1" d="M30.87,23.3l-.76.76c-.08.08-.12.18-.12.3,0,.12.04.22.13.31l.46.46c.08.08.19.13.3.13.12,0,.22-.04.3-.13l.76-.76c.08-.08.13-.19.13-.3,0-.12-.04-.22-.13-.3l-.46-.46c-.08-.08-.19-.13-.3-.13-.12,0-.22.04-.31.12ZM31.14,23.64s.02-.01.03-.01.02,0,.03.01l.4.4s.01.02.01.03,0,.02-.01.03l-.7.7s-.02.01-.03.01c-.01,0-.02,0-.03-.01l-.4-.4s-.02-.04,0-.06l.7-.7Z"/>
    <path class="cls-1" d="M32.31,21.86l-.76.76c-.08.08-.12.18-.12.3,0,.12.04.22.13.31l.46.46c.08.08.19.13.3.13.12,0,.22-.04.3-.13l.76-.76c.08-.08.13-.19.13-.3,0-.05,0-.1-.03-.15-.02-.06-.05-.11-.1-.16l-.46-.46c-.08-.08-.18-.13-.3-.13-.12,0-.22.04-.31.12ZM32.59,22.2s.02-.01.03-.01c.01,0,.02,0,.03.01l.4.4s.01.02.01.03c0,.01,0,.02-.01.03l-.7.7s-.02.01-.03.01c-.01,0-.02,0-.03-.01l-.4-.4s-.02-.04,0-.06l.7-.7Z"/>
    <g>
      <path class="cls-1" d="M34.79,20.06l-1.77,1.77.39.39,1.77-1.77-.39-.39Z"/>
      <path class="cls-1" d="M36.63,18.22l-1.77,1.77.39.39,1.77-1.77-.39-.39Z"/>
      <path class="cls-1" d="M38.47,16.38l-1.76,1.76.39.39,1.76-1.76-.39-.39Z"/>
      <path class="cls-1" d="M40.31,14.54l-1.76,1.76.39.39,1.76-1.76-.39-.39Z"/>
      <path class="cls-1" d="M42.15,12.7l-1.76,1.76.39.39,1.76-1.76-.39-.39Z"/>
      <path class="cls-1" d="M43.63,11.22l-1.41,1.41.39.39,1.32-1.32c-.1-.16-.2-.32-.31-.48Z"/>
    </g>
  </g>
  <g>
    <path class="cls-1" d="M11.48,19.45c0-.12-.04-.22-.13-.3l-.46-.46c-.08-.08-.19-.13-.3-.13-.12,0-.22.04-.3.13l-.67.67.3.3.64-.64s.02-.01.03-.01c.01,0,.02,0,.03.01l.4.4s.01.02.01.03c0,.01,0,.02-.01.03l-.64.64.3.3.67-.67c.08-.08.13-.19.12-.3Z"/>
    <g>
      <path class="cls-1" d="M6.28,23.38l-1.77,1.77.39.39,1.77-1.77-.39-.39Z"/>
      <path class="cls-1" d="M1.05,29.19c.01.06.03.11.04.17l.07-.07-.1-.1Z"/>
      <path class="cls-1" d="M9.95,19.7l-1.76,1.76.39.39,1.76-1.76-.39-.39Z"/>
      <path class="cls-1" d="M8.12,21.54l-1.76,1.76.39.39,1.76-1.76-.39-.39Z"/>
      <path class="cls-1" d="M5.81,22.92l-1.77,1.77.39.39,1.77-1.77-.39-.39Z"/>
      <path class="cls-1" d="M3.97,24.76l-1.76,1.76.39.39,1.76-1.76-.39-.39Z"/>
      <path class="cls-1" d="M2.13,26.59l-1.33,1.33c.04.22.08.44.12.66l1.6-1.6-.39-.39Z"/>
      <path class="cls-1" d="M9.49,19.24l-1.76,1.76.39.39,1.76-1.76-.39-.39Z"/>
      <path class="cls-1" d="M7.65,21.08l-1.76,1.76.39.39,1.76-1.76-.39-.39Z"/>
      <path class="cls-1" d="M1.23,29.36l-.11.11c.05.21.1.42.16.63l.35-.35-.39-.39Z"/>
      <path class="cls-1" d="M10.42,20.17l-1.76,1.76.39.39,1.76-1.76-.39-.39Z"/>
      <path class="cls-1" d="M8.58,22.01l-1.76,1.76.39.39,1.76-1.76-.39-.39Z"/>
      <path class="cls-1" d="M2.6,27.06l-1.65,1.65c.02.1.04.19.06.29l.22.22,1.76-1.76-.39-.39Z"/>
      <path class="cls-1" d="M3.07,27.53l-1.76,1.76.39.39,1.76-1.76-.39-.39Z"/>
      <path class="cls-1" d="M4.44,25.22l-1.76,1.76.39.39,1.76-1.76-.39-.39Z"/>
      <path class="cls-1" d="M4.9,25.69l-1.76,1.76.39.39,1.76-1.76-.39-.39Z"/>
      <path class="cls-1" d="M6.74,23.85l-1.77,1.77.39.39,1.77-1.77-.39-.39Z"/>
    </g>
    <path class="cls-1" d="M12.92,18.02c0-.12-.04-.22-.13-.3l-.46-.46c-.08-.08-.19-.13-.3-.13-.12,0-.22.04-.3.13l-.76.76c-.08.08-.13.19-.13.3,0,.12.04.22.13.3l.46.46c.08.08.19.13.31.13.12,0,.22-.04.3-.12l.76-.76c.08-.08.13-.19.12-.31ZM11.76,18.75s-.04.02-.06,0l-.4-.4s-.01-.02-.01-.03c0-.01,0-.02.01-.03l.7-.7s.02-.01.03-.01c.01,0,.02,0,.03.01l.4.4s.01.02.01.03c0,.01,0,.02-.01.03l-.7.7Z"/>
    <path class="cls-1" d="M14.36,16.57c0-.12-.04-.22-.13-.3l-.46-.46c-.08-.08-.19-.13-.3-.13-.12,0-.22.04-.3.13l-.76.76c-.08.08-.13.19-.13.3,0,.12.04.22.13.3l.46.46c.08.08.19.13.31.13.12,0,.22-.04.3-.12l.76-.76c.08-.08.13-.19.12-.31ZM13.2,17.3s-.04.02-.06,0l-.4-.4s-.01-.02-.01-.03,0-.02.01-.03l.7-.7s.02-.01.03-.01c.01,0,.02,0,.03.01l.4.4s.01.02.01.03c0,.01,0,.02-.01.03l-.7.7Z"/>
    <path class="cls-1" d="M15.8,15.13c0-.12-.04-.22-.13-.3l-.46-.46c-.08-.08-.19-.13-.3-.13s-.22.04-.3.13l-.76.76c-.08.08-.13.19-.13.3s.04.22.13.3l.46.46c.08.08.19.13.31.13.12,0,.22-.04.3-.12l.76-.76c.08-.08.13-.19.12-.31ZM14.64,15.86s-.04.02-.06,0l-.4-.4s-.01-.02-.01-.03c0-.01,0-.02.01-.03l.7-.7s.02-.01.03-.01c.01,0,.02,0,.03.01l.4.4s.01.02.01.03c0,.01,0,.02-.01.03l-.7.7Z"/>
    <path class="cls-1" d="M17.24,13.69c0-.12-.04-.22-.13-.3l-.46-.46c-.08-.08-.19-.13-.3-.13-.12,0-.22.04-.3.13l-.76.76c-.08.08-.13.19-.13.3,0,.12.04.22.13.3l.46.46c.08.08.19.13.31.13.12,0,.22-.04.3-.12l.76-.76c.08-.08.13-.19.12-.31ZM16.08,14.42s-.04.02-.06,0l-.4-.4s-.01-.02-.01-.03c0-.01,0-.02.01-.03l.7-.7s.02-.01.03-.01.02,0,.03.01l.4.4s.01.02.01.03c0,.01,0,.02-.01.03l-.7.7Z"/>
    <path class="cls-1" d="M18.68,12.25c0-.12-.04-.22-.13-.3l-.46-.46c-.08-.08-.19-.13-.3-.13-.12,0-.22.04-.3.13l-.76.76c-.08.08-.13.19-.13.3,0,.12.04.22.13.3l.46.46c.08.08.19.13.31.13.12,0,.22-.04.3-.12l.76-.76c.08-.08.13-.19.12-.31ZM17.53,12.98s-.04.02-.06,0l-.4-.4s-.01-.02-.01-.03c0-.01,0-.02.01-.03l.7-.7s.02-.01.03-.01c.01,0,.02,0,.03.01l.4.4s.01.02.01.03c0,.01,0,.02-.01.03l-.7.7Z"/>
    <path class="cls-1" d="M20.12,10.81c0-.12-.04-.22-.13-.3l-.46-.46c-.08-.08-.19-.13-.3-.13-.01,0-.02,0-.03,0h0c-.1,0-.19.05-.27.12l-.76.76c-.08.08-.13.19-.13.3,0,.12.04.22.13.3l.46.46c.08.08.19.13.31.13.12,0,.22-.04.3-.13l.76-.76c.08-.08.13-.19.12-.31ZM18.97,11.54s-.04.02-.06,0l-.4-.4s-.01-.02-.01-.03c0-.01,0-.02.01-.03l.7-.7s.02-.01.03-.01c.01,0,.02,0,.03.01l.4.4s.01.02.01.03c0,.01,0,.02-.01.03l-.7.7Z"/>
    <path class="cls-1" d="M21.41,8.24l-1.76,1.76.39.39,1.76-1.76-.39-.39Z"/>
    <path class="cls-1" d="M23.25,6.4l-1.76,1.76.39.39,1.76-1.76-.39-.39Z"/>
    <path class="cls-1" d="M25.09,4.56l-1.77,1.77.39.39,1.77-1.77-.39-.39Z"/>
    <path class="cls-1" d="M26.93,2.72l-1.77,1.77.39.39,1.77-1.77-.39-.39Z"/>
    <path class="cls-1" d="M29.02,1.14c-.14-.03-.28-.06-.42-.09l-1.6,1.6.39.39,1.76-1.76-.14-.14Z"/>
  </g>
  <g>
    <path class="cls-1" d="M9.15,17.89s-.01-.02-.02-.03c0-.01-.02-.02-.03-.03,0-.01-.02-.02-.03-.03l-.46-.46c-.05-.05-.11-.09-.18-.11l.74.74s-.02-.06-.03-.08Z"/>
    <g>
      <path class="cls-1" d="M4.95,21.09l-1.76,1.76.39.39,1.76-1.76-.39-.39Z"/>
      <path class="cls-1" d="M8.63,17.42l-1.76,1.76.39.39,1.76-1.76-.39-.39Z"/>
      <path class="cls-1" d="M6.79,19.26l-1.76,1.76.39.39,1.76-1.76-.39-.39Z"/>
      <path class="cls-1" d="M5.42,21.56l-1.76,1.76.39.39,1.76-1.76-.39-.39Z"/>
      <path class="cls-1" d="M3.58,23.4l-1.76,1.76.39.39,1.76-1.76-.39-.39Z"/>
      <path class="cls-1" d="M1.74,25.24l-1.17,1.17c.02.23.05.47.08.7l1.48-1.48-.39-.39Z"/>
      <path class="cls-1" d="M9.09,17.88l-1.76,1.76.39.39,1.76-1.76-.39-.39Z"/>
      <path class="cls-1" d="M7.26,19.72l-1.76,1.76.39.39,1.76-1.76-.39-.39Z"/>
      <path class="cls-1" d="M8.16,16.95l-1.76,1.76.39.39,1.76-1.76-.39-.39Z"/>
      <path class="cls-1" d="M6.32,18.79l-1.76,1.76.39.39,1.76-1.76-.39-.39Z"/>
      <path class="cls-1" d="M1.27,24.77l-.77.77c.01.24.03.49.06.73l1.11-1.11-.39-.39Z"/>
      <path class="cls-1" d="M.81,24.31l-.35.35c0,.25.02.5.03.75l.71-.71-.39-.39Z"/>
      <path class="cls-1" d="M3.11,22.93l-1.76,1.76.39.39,1.76-1.76-.39-.39Z"/>
      <path class="cls-1" d="M2.65,22.47l-1.76,1.76.39.39,1.76-1.76-.39-.39Z"/>
      <path class="cls-1" d="M4.48,20.63l-1.76,1.76.39.39,1.76-1.76-.39-.39Z"/>
    </g>
    <path class="cls-1" d="M9.46,15.91l-.76.76c-.08.08-.12.18-.13.3,0,.12.04.22.13.31l.46.46c.08.08.19.13.3.13.12,0,.22-.04.3-.13l.76-.76c.08-.08.13-.19.13-.3,0-.12-.04-.22-.13-.3l-.46-.46c-.08-.08-.18-.13-.3-.13-.12,0-.22.04-.31.12ZM9.74,16.24s.02-.01.03-.01c.01,0,.02,0,.03.01l.4.4s.01.02.01.03c0,.01,0,.02-.01.03l-.7.7s-.02.01-.03.01c-.01,0-.02,0-.03-.01l-.4-.4s-.02-.04,0-.06l.7-.7Z"/>
    <path class="cls-1" d="M10.91,14.47l-.76.76c-.08.08-.12.18-.12.3,0,.12.04.22.13.31l.45.45c.08.08.19.13.3.13.12,0,.22-.04.3-.13l.76-.76c.08-.08.13-.19.13-.3,0-.12-.04-.22-.13-.3l-.45-.45c-.08-.08-.18-.13-.3-.13-.12,0-.22.04-.31.13ZM11.18,14.8s.02-.01.03-.01c.01,0,.02,0,.03.01l.4.4s.01.02.01.03c0,.01,0,.02-.01.03l-.7.7s-.02.01-.03.01c-.01,0-.02,0-.03-.01l-.4-.4s-.02-.04,0-.06l.7-.7Z"/>
    <path class="cls-1" d="M12.35,13.03l-.76.76c-.08.08-.13.18-.12.3,0,.12.04.22.13.31l.45.45c.08.08.19.13.3.13.12,0,.22-.04.3-.13l.76-.76c.08-.08.13-.19.13-.3,0-.12-.04-.22-.13-.3l-.45-.45c-.08-.08-.18-.13-.3-.13-.12,0-.22.04-.31.12ZM12.62,13.36s.02-.01.03-.01c.01,0,.02,0,.03.01l.4.4s.01.02.01.03c0,.01,0,.02-.01.03l-.7.7s-.02.01-.03.01c-.01,0-.02,0-.03-.01l-.4-.4s-.02-.04,0-.06l.7-.7Z"/>
    <path class="cls-1" d="M13.79,11.59l-.76.76c-.08.08-.13.18-.12.3,0,.12.04.22.13.31l.46.46c.08.08.19.13.3.13.12,0,.22-.04.3-.13l.76-.76c.08-.08.13-.19.13-.3,0-.12-.04-.22-.13-.3l-.46-.46c-.08-.08-.18-.13-.3-.13-.12,0-.22.04-.31.12ZM14.06,11.92s.02-.01.03-.01c.01,0,.02,0,.03.01l.4.4s.01.02.01.03c0,.01,0,.02-.01.03l-.7.7s-.02.01-.03.01c-.01,0-.02,0-.03-.01l-.4-.4s-.02-.04,0-.06l.7-.7Z"/>
    <path class="cls-1" d="M15.23,10.14l-.76.76c-.08.08-.13.18-.12.3,0,.12.04.22.13.31l.46.46c.08.08.19.13.3.13.12,0,.22-.04.3-.13l.76-.76c.08-.08.13-.19.13-.3,0-.12-.04-.22-.13-.3l-.46-.46c-.08-.08-.19-.13-.3-.13-.12,0-.22.04-.31.12ZM15.51,10.48s.02-.01.03-.01c.01,0,.02,0,.03.01l.4.4s.01.02.01.03c0,.01,0,.02-.01.03l-.7.7s-.02.01-.03.01c-.01,0-.02,0-.03-.01l-.4-.4s-.02-.04,0-.06l.7-.7Z"/>
    <path class="cls-1" d="M16.67,8.7l-.76.76c-.08.08-.13.18-.12.3,0,.12.04.22.13.31l.46.46c.08.08.19.13.3.13.12,0,.22-.04.3-.13l.76-.76c.08-.08.13-.19.13-.3,0-.12-.04-.22-.13-.3l-.46-.46c-.08-.08-.18-.13-.3-.13-.04,0-.08,0-.12.01-.07.02-.13.06-.19.11ZM16.95,9.04s.02-.01.03-.01c.01,0,.02,0,.03.01l.4.4s.01.02.01.03c0,.01,0,.02-.01.03l-.7.7s-.02.01-.03.01c-.01,0-.02,0-.03-.01l-.4-.4s-.02-.04,0-.06l.7-.7Z"/>
    <g>
      <path class="cls-1" d="M19.15,6.9l-1.77,1.77.39.39,1.77-1.77-.39-.39Z"/>
      <path class="cls-1" d="M20.99,5.06l-1.77,1.77.39.39,1.77-1.77-.39-.39Z"/>
      <path class="cls-1" d="M22.83,3.22l-1.76,1.76.39.39,1.76-1.76-.39-.39Z"/>
      <path class="cls-1" d="M24.67,1.38l-1.76,1.76.39.39,1.76-1.76-.39-.39Z"/>
      <path class="cls-1" d="M25.43.61l-.69.69.39.39,1.03-1.03c-.24-.02-.48-.04-.73-.06Z"/>
    </g>
  </g>
  <g>
    <path class="cls-1" d="M8.16,15.75l-1.05-1.05c.07-.05.15-.08.24-.08.12,0,.22.04.3.13l.46.46c.08.08.13.18.13.3,0,.09-.02.18-.08.25Z"/>
    <g>
      <path class="cls-1" d="M3.76,18.7l-1.77,1.77.39.39,1.77-1.77-.39-.39Z"/>
      <path class="cls-1" d="M7.44,15.02l-1.77,1.77.39.39,1.77-1.77-.39-.39Z"/>
      <path class="cls-1" d="M5.6,16.86l-1.76,1.76.39.39,1.76-1.76-.39-.39Z"/>
      <path class="cls-1" d="M3.29,18.24l-1.77,1.77.39.39,1.77-1.77-.39-.39Z"/>
      <path class="cls-1" d="M1.46,20.07l-.73.73c-.04.3-.08.59-.11.89l1.23-1.23-.39-.39Z"/>
      <path class="cls-1" d="M6.97,14.56l-1.77,1.77.39.39,1.77-1.77-.39-.39Z"/>
      <path class="cls-1" d="M5.13,16.4l-1.76,1.76.39.39,1.76-1.76-.39-.39Z"/>
      <path class="cls-1" d="M7.9,15.49l-1.77,1.77.39.39,1.77-1.77-.39-.39Z"/>
      <path class="cls-1" d="M6.06,17.33l-1.76,1.76.39.39,1.76-1.76-.39-.39Z"/>
      <path class="cls-1" d="M.55,22.85l-.02.02c-.01.27-.02.54-.03.81l.44-.44-.39-.39Z"/>
      <path class="cls-1" d="M1.92,20.54l-1.32,1.32c-.03.27-.05.55-.06.82h.01s1.77-1.75,1.77-1.75l-.39-.39Z"/>
      <path class="cls-1" d="M2.39,21.01l-1.77,1.77.39.39,1.77-1.77-.39-.39Z"/>
      <path class="cls-1" d="M4.23,19.17l-1.77,1.77.39.39,1.77-1.77-.39-.39Z"/>
    </g>
    <path class="cls-1" d="M9.68,14.06c0-.12-.04-.22-.13-.3l-.46-.46c-.08-.08-.19-.13-.3-.13-.12,0-.22.04-.3.13l-.76.76c-.08.08-.13.19-.13.3,0,.12.04.22.13.3l.46.46c.08.08.19.13.31.13.12,0,.22-.04.3-.13l.76-.76c.08-.08.13-.19.12-.31ZM8.52,14.79s-.04.02-.06,0l-.4-.4s-.01-.02-.01-.03c0-.01,0-.02.01-.03l.7-.7s.02-.01.03-.01c.01,0,.02,0,.03.01l.4.4s.01.02.01.03c0,.01,0,.02-.01.03l-.7.7Z"/>
    <path class="cls-1" d="M11.12,12.61c0-.12-.04-.22-.13-.3l-.46-.46c-.08-.08-.19-.13-.3-.13-.12,0-.22.04-.3.13l-.76.76c-.08.08-.13.19-.13.3,0,.12.04.22.13.3l.46.46c.08.08.19.13.31.13.12,0,.22-.04.3-.12l.76-.76c.08-.08.13-.19.12-.31ZM9.96,13.34s-.04.02-.06,0l-.4-.4s-.01-.02-.01-.03c0-.01,0-.02.01-.03l.7-.7s.02-.01.03-.01.02,0,.03.01l.4.4s.01.02.01.03c0,.01,0,.02-.01.03l-.7.7Z"/>
    <path class="cls-1" d="M12.56,11.17c0-.12-.04-.22-.13-.3l-.46-.46c-.08-.08-.19-.13-.3-.13-.12,0-.22.04-.3.13l-.76.76c-.08.08-.13.19-.13.3,0,.12.04.22.13.3l.46.46c.08.08.19.13.31.13.12,0,.22-.04.3-.12l.76-.76c.08-.08.13-.19.12-.31ZM11.4,11.9s-.04.02-.06,0l-.4-.4s-.01-.02-.01-.03c0-.01,0-.02.01-.03l.7-.7s.02-.01.03-.01.02,0,.03.01l.4.4s.01.02.01.03c0,.01,0,.02-.01.03l-.7.7Z"/>
    <path class="cls-1" d="M14,9.73c0-.12-.04-.22-.13-.3l-.46-.46c-.08-.08-.19-.13-.3-.13-.12,0-.22.04-.3.13l-.76.76c-.08.08-.13.19-.13.3,0,.12.04.22.13.3l.46.46c.08.08.19.13.31.13.12,0,.22-.04.3-.12l.76-.76c.08-.08.13-.19.12-.31ZM12.84,10.46s-.04.02-.06,0l-.4-.4s-.01-.02-.01-.03c0-.01,0-.02.01-.03l.7-.7s.02-.01.03-.01c.01,0,.02,0,.03.01l.4.4s.01.02.01.03c0,.01,0,.02-.01.03l-.7.7Z"/>
    <path class="cls-1" d="M15.44,8.29c0-.12-.04-.22-.13-.3l-.46-.46c-.08-.08-.19-.13-.3-.13-.07,0-.14.02-.2.05-.04.02-.07.04-.1.08l-.76.76c-.08.08-.13.19-.13.3,0,.12.04.22.13.3l.46.46c.08.08.19.13.31.13.12,0,.22-.04.3-.13l.76-.76c.08-.08.13-.19.12-.31ZM14.29,9.02s-.04.02-.06,0l-.4-.4s-.01-.02-.01-.03c0-.01,0-.02.01-.03l.7-.7s.02-.01.03-.01c.01,0,.02,0,.03.01l.4.4s.01.02.01.03c0,.01,0,.02-.01.03l-.7.7Z"/>
    <g>
      <path class="cls-1" d="M16.73,5.73l-1.76,1.76.39.39,1.76-1.76-.39-.39Z"/>
      <path class="cls-1" d="M18.57,3.89l-1.76,1.76.39.39,1.76-1.76-.39-.39Z"/>
      <path class="cls-1" d="M20.41,2.05l-1.77,1.77.39.39,1.77-1.77-.39-.39Z"/>
      <path class="cls-1" d="M21.76.69l-1.28,1.28.39.39,1.74-1.74c-.28.02-.57.04-.85.06Z"/>
    </g>
  </g>
  <g>
    <path class="cls-1" d="M14.13,24.19l-.45.45-.3-.3.42-.42s.01-.02.01-.03c0-.01,0-.02-.01-.03l-.4-.4s-.02-.01-.03-.01c-.01,0-.02,0-.03.01l-.42.42-.3-.3.45-.45c.08-.08.19-.13.3-.13.12,0,.22.04.3.13l.46.46c.08.08.13.18.13.3,0,.12-.04.22-.12.31Z"/>
    <g>
      <path class="cls-1" d="M9.27,27.59l-1.77,1.77.39.39,1.77-1.77-.39-.39Z"/>
      <path class="cls-1" d="M3.76,33.11l-1.01,1.01c.08.18.17.35.26.53l1.14-1.14-.39-.39Z"/>
      <path class="cls-1" d="M12.95,23.91l-1.76,1.76.39.39,1.76-1.76-.39-.39Z"/>
      <path class="cls-1" d="M11.11,25.75l-1.76,1.76.39.39,1.76-1.76-.39-.39Z"/>
      <path class="cls-1" d="M8.81,27.12l-1.77,1.77.39.39,1.77-1.77-.39-.39Z"/>
      <path class="cls-1" d="M6.97,28.96l-1.76,1.76.39.39,1.76-1.76-.39-.39Z"/>
      <path class="cls-1" d="M5.13,30.8l-1.76,1.76.39.39,1.76-1.76-.39-.39Z"/>
      <path class="cls-1" d="M3.29,32.64l-.83.83c.08.18.16.36.24.54l.98-.98-.39-.39Z"/>
      <path class="cls-1" d="M12.48,23.45l-1.76,1.76.39.39,1.76-1.76-.39-.39Z"/>
      <path class="cls-1" d="M10.65,25.29l-1.76,1.76.39.39,1.76-1.76-.39-.39Z"/>
      <path class="cls-1" d="M4.22,33.57l-1.17,1.17c.09.17.18.34.27.51l1.29-1.29-.39-.39Z"/>
      <path class="cls-1" d="M13.42,24.38l-1.76,1.76.39.39,1.76-1.76-.39-.39Z"/>
      <path class="cls-1" d="M11.58,26.22l-1.76,1.76.39.39,1.76-1.76-.39-.39Z"/>
      <path class="cls-1" d="M5.59,31.27l-1.76,1.76.39.39,1.76-1.76-.39-.39Z"/>
      <path class="cls-1" d="M6.06,31.73l-1.76,1.76.39.39,1.76-1.76-.39-.39Z"/>
      <path class="cls-1" d="M7.43,29.43l-1.76,1.76.39.39,1.76-1.76-.39-.39Z"/>
      <path class="cls-1" d="M7.9,29.9l-1.76,1.76.39.39,1.76-1.76-.39-.39Z"/>
      <path class="cls-1" d="M9.74,28.06l-1.77,1.77.39.39,1.77-1.77-.39-.39Z"/>
    </g>
    <path class="cls-1" d="M15.7,22.45c0-.12-.04-.22-.13-.3l-.46-.46c-.08-.08-.19-.13-.3-.13-.12,0-.22.04-.3.13l-.76.76c-.08.08-.13.19-.13.3,0,.12.04.22.13.3l.46.46c.08.08.19.13.31.13.12,0,.22-.04.3-.12l.76-.76c.08-.08.13-.19.12-.31ZM14.54,23.18s-.04.02-.06,0l-.4-.4s-.01-.02-.01-.03c0-.01,0-.02.01-.03l.7-.7s.02-.01.03-.01c.01,0,.02,0,.03.01l.4.4s.01.02.01.03c0,.01,0,.02-.01.03l-.7.7Z"/>
    <path class="cls-1" d="M17.14,21c0-.12-.04-.22-.13-.3l-.46-.46c-.08-.08-.19-.13-.3-.13-.12,0-.22.04-.3.13l-.76.76c-.08.08-.13.19-.13.3,0,.12.04.22.13.3l.46.46c.08.08.19.13.31.13.12,0,.22-.04.3-.12l.76-.76c.08-.08.13-.19.12-.31ZM15.98,21.74s-.04.02-.06,0l-.4-.4s-.01-.02-.01-.03,0-.02.01-.03l.7-.7s.02-.01.03-.01c.01,0,.02,0,.03.01l.4.4s.01.02.01.03c0,.01,0,.02-.01.03l-.7.7Z"/>
    <path class="cls-1" d="M18.58,19.56c0-.12-.04-.22-.13-.3l-.46-.46c-.08-.08-.19-.13-.3-.13-.12,0-.22.04-.3.13l-.76.76c-.08.08-.13.19-.13.3,0,.12.04.22.13.3l.46.46c.08.08.19.13.31.13.12,0,.22-.04.3-.12l.76-.76c.08-.08.13-.19.12-.31ZM17.42,20.29s-.04.02-.06,0l-.4-.4s-.01-.02-.01-.03c0-.01,0-.02.01-.03l.7-.7s.02-.01.03-.01c.01,0,.02,0,.03.01l.4.4s.01.02.01.03c0,.01,0,.02-.01.03l-.7.7Z"/>
    <path class="cls-1" d="M20.02,18.12c0-.12-.04-.22-.13-.3l-.46-.46c-.08-.08-.19-.13-.3-.13-.12,0-.22.04-.3.13l-.76.76c-.08.08-.13.19-.13.3,0,.12.04.22.13.3l.46.46c.08.08.19.13.31.13.12,0,.22-.04.3-.12l.76-.76c.08-.08.13-.19.12-.31ZM18.86,18.85s-.04.02-.06,0l-.4-.4s-.01-.02-.01-.03c0-.01,0-.02.01-.03l.7-.7s.02-.01.03-.01c.01,0,.02,0,.03.01l.4.4s.01.02.01.03c0,.01,0,.02-.01.03l-.7.7Z"/>
    <path class="cls-1" d="M21.46,16.68c0-.12-.04-.22-.13-.3l-.46-.46c-.08-.08-.19-.13-.3-.13-.12,0-.22.04-.3.13l-.76.76c-.08.08-.13.19-.13.3,0,.12.04.22.13.3l.46.46c.08.08.19.13.31.13.12,0,.22-.04.3-.13l.76-.76c.08-.08.13-.19.12-.31ZM20.3,17.41s-.04.02-.06,0l-.4-.4s-.01-.02-.01-.03c0-.01,0-.02.01-.03l.7-.7s.02-.01.03-.01c.01,0,.02,0,.03.01l.4.4s.01.02.01.03c0,.01,0,.02-.01.03l-.7.7Z"/>
    <path class="cls-1" d="M22.9,15.24c0-.12-.04-.22-.13-.3l-.46-.46c-.08-.08-.19-.13-.3-.13-.12,0-.22.04-.3.13l-.76.76c-.08.08-.13.19-.13.3,0,.12.04.22.13.3l.46.46c.08.08.19.13.31.13.12,0,.22-.04.3-.13l.76-.76c.08-.08.13-.19.12-.31ZM21.74,15.97s-.04.02-.06,0l-.4-.4s-.01-.02-.01-.03c0-.01,0-.02.01-.03l.7-.7s.02-.01.03-.01c.01,0,.02,0,.03.01l.4.4s.01.02.01.03c0,.01,0,.02-.01.03l-.7.7Z"/>
    <path class="cls-1" d="M24.34,13.8c0-.12-.04-.22-.13-.3l-.46-.46c-.06-.06-.14-.1-.22-.12-.03,0-.05,0-.08,0-.12,0-.22.04-.3.13l-.76.76c-.08.08-.13.19-.13.3,0,.12.04.22.13.3l.46.46c.08.08.19.13.31.13.12,0,.22-.04.3-.12l.76-.76c.08-.08.13-.19.12-.31ZM23.19,14.53s-.04.02-.06,0l-.4-.4s-.01-.02-.01-.03c0-.01,0-.02.01-.03l.7-.7s.02-.01.03-.01c.01,0,.02,0,.03.01l.4.4s.01.02.01.03c0,.01,0,.02-.01.03l-.7.7Z"/>
    <g>
      <path class="cls-1" d="M25.63,11.23l-1.76,1.76.39.39,1.76-1.76-.39-.39Z"/>
      <path class="cls-1" d="M27.47,9.39l-1.76,1.76.39.39,1.76-1.76-.39-.39Z"/>
      <path class="cls-1" d="M29.31,7.55l-1.76,1.76.39.39,1.76-1.76-.39-.39Z"/>
      <path class="cls-1" d="M31.15,5.71l-1.76,1.76.39.39,1.76-1.76-.39-.39Z"/>
      <path class="cls-1" d="M32.99,3.87l-1.76,1.76.39.39,1.76-1.76-.39-.39Z"/>
      <path class="cls-1" d="M34.03,2.84l-.96.96.39.39,1.1-1.1c-.17-.09-.35-.17-.53-.26Z"/>
    </g>
  </g>
  <g>
    <path class="cls-1" d="M12.11,22.6l-1.06-1.06c.07-.05.15-.08.25-.08.12,0,.22.04.3.13l.46.46c.08.08.13.18.13.3,0,.09-.03.18-.08.25Z"/>
    <g>
      <path class="cls-1" d="M7.71,25.55l-1.77,1.77.39.39,1.77-1.77-.39-.39Z"/>
      <path class="cls-1" d="M2.19,31.07l-.48.48c.06.19.13.39.2.58l.67-.67-.39-.39Z"/>
      <path class="cls-1" d="M11.38,21.88l-1.76,1.76.39.39,1.76-1.76-.39-.39Z"/>
      <path class="cls-1" d="M9.54,23.72l-1.76,1.76.39.39,1.76-1.76-.39-.39Z"/>
      <path class="cls-1" d="M7.24,25.09l-1.77,1.77.39.39,1.77-1.77-.39-.39Z"/>
      <path class="cls-1" d="M5.4,26.93l-1.76,1.76.39.39,1.76-1.76-.39-.39Z"/>
      <path class="cls-1" d="M3.56,28.77l-1.77,1.77.39.39,1.77-1.77-.39-.39Z"/>
      <path class="cls-1" d="M1.72,30.6l-.24.24c.06.2.12.4.19.6l.44-.44-.39-.39Z"/>
      <path class="cls-1" d="M10.92,21.41l-1.76,1.76.39.39,1.76-1.76-.39-.39Z"/>
      <path class="cls-1" d="M9.08,23.25l-1.76,1.76.39.39,1.76-1.76-.39-.39Z"/>
      <path class="cls-1" d="M2.65,31.54l-.7.7c.07.19.14.38.22.57l.88-.88-.39-.39Z"/>
      <path class="cls-1" d="M11.85,22.34l-1.76,1.76.39.39,1.76-1.76-.39-.39Z"/>
      <path class="cls-1" d="M10.01,24.18l-1.76,1.76.39.39,1.76-1.76-.39-.39Z"/>
      <path class="cls-1" d="M4.03,29.23l-1.77,1.77.39.39,1.77-1.77-.39-.39Z"/>
      <path class="cls-1" d="M4.49,29.7l-1.77,1.77.39.39,1.77-1.77-.39-.39Z"/>
      <path class="cls-1" d="M5.87,27.39l-1.76,1.76.39.39,1.76-1.76-.39-.39Z"/>
      <path class="cls-1" d="M6.33,27.86l-1.76,1.76.39.39,1.76-1.76-.39-.39Z"/>
      <path class="cls-1" d="M8.17,26.02l-1.77,1.77.39.39,1.77-1.77-.39-.39Z"/>
    </g>
    <path class="cls-1" d="M13.63,20.91c0-.12-.04-.22-.13-.3l-.46-.46c-.08-.08-.19-.13-.3-.13-.12,0-.22.04-.3.13l-.76.76c-.08.08-.13.19-.13.3,0,.12.04.22.13.3l.46.46c.08.08.19.13.3.13.12,0,.22-.04.3-.12l.76-.76c.08-.08.13-.19.12-.31ZM12.47,21.64s-.04.02-.06,0l-.4-.4s-.01-.02-.01-.03c0-.01,0-.02.01-.03l.7-.7s.02-.01.03-.01c.01,0,.02,0,.03.01l.4.4s.01.02.01.03c0,.01,0,.02-.01.03l-.7.7Z"/>
    <path class="cls-1" d="M15.07,19.47c0-.12-.04-.22-.13-.3l-.46-.46c-.08-.08-.19-.13-.3-.13-.12,0-.22.04-.3.13l-.76.76c-.08.08-.13.19-.13.3,0,.12.04.22.13.3l.46.46c.08.08.19.13.3.13.12,0,.22-.04.3-.12l.76-.76c.08-.08.13-.19.12-.31ZM13.91,20.2s-.04.02-.06,0l-.4-.4s-.01-.02-.01-.03c0-.01,0-.02.01-.03l.7-.7s.02-.01.03-.01c.01,0,.02,0,.03.01l.4.4s.01.02.01.03c0,.01,0,.02-.01.03l-.7.7Z"/>
    <path class="cls-1" d="M16.51,18.02c0-.12-.04-.22-.13-.3l-.45-.45c-.08-.08-.19-.13-.3-.13-.12,0-.22.04-.3.13l-.76.76c-.08.08-.13.19-.13.3,0,.12.04.22.13.3l.45.45c.08.08.19.13.31.13.12,0,.22-.04.3-.12l.76-.76c.08-.08.13-.19.12-.31ZM15.35,18.75s-.04.02-.06,0l-.4-.4s-.01-.02-.01-.03c0-.01,0-.02.01-.03l.7-.7s.02-.01.03-.01c.01,0,.02,0,.03.01l.4.4s.01.02.01.03,0,.02-.01.03l-.7.7Z"/>
    <path class="cls-1" d="M17.95,16.58c0-.12-.04-.22-.13-.3l-.46-.46c-.08-.08-.19-.13-.3-.13-.12,0-.22.04-.3.13l-.76.76c-.08.08-.13.19-.13.3,0,.12.04.22.13.3l.46.46c.08.08.19.13.31.13.12,0,.22-.04.3-.12l.76-.76c.08-.08.13-.19.12-.31ZM16.79,17.31s-.04.02-.06,0l-.4-.4s-.01-.02-.01-.03c0-.01,0-.02.01-.03l.7-.7s.02-.01.03-.01c.01,0,.02,0,.03.01l.4.4s.01.02.01.03c0,.01,0,.02-.01.03l-.7.7Z"/>
    <path class="cls-1" d="M19.39,15.14c0-.12-.04-.22-.13-.3l-.46-.46c-.08-.08-.19-.13-.3-.13-.12,0-.22.04-.3.13l-.76.76c-.08.08-.13.19-.13.3,0,.12.04.22.13.3l.46.46c.08.08.19.13.31.13.12,0,.22-.04.3-.12l.76-.76c.08-.08.13-.19.12-.31ZM18.23,15.87s-.04.02-.06,0l-.4-.4s-.01-.02-.01-.03c0-.01,0-.02.01-.03l.7-.7s.02-.01.03-.01c.01,0,.02,0,.03.01l.4.4s.01.02.01.03c0,.01,0,.02-.01.03l-.7.7Z"/>
    <path class="cls-1" d="M20.83,13.7c0-.12-.04-.22-.13-.3l-.46-.46c-.08-.08-.19-.13-.3-.13-.12,0-.22.04-.3.13l-.76.76c-.08.08-.13.19-.13.3,0,.12.04.22.13.3l.46.46c.08.08.19.13.31.13.12,0,.22-.04.3-.13l.76-.76c.08-.08.13-.19.12-.31ZM19.67,14.43s-.04.02-.06,0l-.4-.4s-.01-.02-.01-.03c0-.01,0-.02.01-.03l.7-.7s.02-.01.03-.01c.01,0,.02,0,.03.01l.4.4s.01.02.01.03c0,.01,0,.02-.01.03l-.7.7Z"/>
    <path class="cls-1" d="M22.27,12.26c0-.12-.04-.22-.13-.3l-.46-.46c-.08-.08-.16-.12-.27-.12-.01,0-.02,0-.04,0-.12,0-.22.04-.3.13l-.76.76c-.08.08-.13.19-.13.3,0,.12.04.22.13.3l.46.46c.08.08.19.13.31.13.12,0,.22-.04.3-.13l.76-.76c.08-.08.13-.19.12-.31ZM21.12,12.99s-.04.02-.06,0l-.4-.4s-.01-.02-.01-.03c0-.01,0-.02.01-.03l.7-.7s.02-.01.03-.01.02,0,.03.01l.4.4s.01.02.01.03,0,.02-.01.03l-.7.7Z"/>
    <g>
      <path class="cls-1" d="M23.56,9.69l-1.76,1.76.39.39,1.76-1.76-.39-.39Z"/>
      <path class="cls-1" d="M25.4,7.85l-1.76,1.76.39.39,1.76-1.76-.39-.39Z"/>
      <path class="cls-1" d="M27.24,6.01l-1.76,1.76.39.39,1.76-1.76-.39-.39Z"/>
      <path class="cls-1" d="M29.08,4.17l-1.77,1.77.39.39,1.77-1.77-.39-.39Z"/>
      <path class="cls-1" d="M30.92,2.34l-1.77,1.77.39.39,1.77-1.77-.39-.39Z"/>
      <path class="cls-1" d="M31.45,1.8l-.46.46.39.39.65-.65c-.19-.07-.39-.14-.58-.2Z"/>
    </g>
  </g>
  <g>
    <path class="cls-1" d="M19.96,28.98c0-.12-.04-.22-.13-.3l-.46-.46c-.08-.08-.19-.13-.3-.13-.12,0-.22.04-.3.13l-.76.76c-.08.08-.13.19-.13.3,0,.04,0,.07.01.1l.77.77s.07.01.1.01c.12,0,.22-.04.3-.12l.76-.76c.08-.08.13-.19.13-.31ZM18.8,29.71s-.04.02-.06,0l-.4-.4s-.01-.02-.01-.03c0-.01,0-.02.01-.03l.7-.7s.02-.01.03-.01c.01,0,.02,0,.03.01l.4.4s.01.02.01.03c0,.01,0,.02-.01.03l-.7.7Z"/>
    <path class="cls-1" d="M14.4,33.25l-1.76,1.76.39.39,1.76-1.76-.39-.39Z"/>
    <path class="cls-1" d="M8.89,38.77l-1.71,1.71.39.39,1.71-1.71-.39-.39Z"/>
    <path class="cls-1" d="M18.08,29.57l-1.76,1.76.39.39,1.76-1.76-.39-.39Z"/>
    <path class="cls-1" d="M16.24,31.41l-1.76,1.76.39.39,1.76-1.76-.39-.39Z"/>
    <path class="cls-1" d="M13.94,32.79l-1.76,1.76.39.39,1.76-1.76-.39-.39Z"/>
    <path class="cls-1" d="M12.1,34.62l-1.76,1.76.39.39,1.76-1.76-.39-.39Z"/>
    <path class="cls-1" d="M10.26,36.46l-1.76,1.76.39.39,1.76-1.76-.39-.39Z"/>
    <path class="cls-1" d="M8.42,38.3l-1.7,1.7.38.4,1.71-1.71-.39-.39Z"/>
    <path class="cls-1" d="M17.62,29.11l-1.76,1.76.39.39,1.76-1.76-.39-.39Z"/>
    <path class="cls-1" d="M15.78,30.95l-1.76,1.76.39.39,1.76-1.76-.39-.39Z"/>
    <path class="cls-1" d="M9.35,39.23l-1.71,1.71.4.38,1.7-1.7-.39-.39Z"/>
    <path class="cls-1" d="M18.55,30.04l-1.76,1.76.39.39,1.76-1.76-.39-.39Z"/>
    <path class="cls-1" d="M16.71,31.88l-1.76,1.76.39.39,1.76-1.76-.39-.39Z"/>
    <path class="cls-1" d="M10.73,36.93l-1.76,1.76.39.39,1.76-1.76-.39-.39Z"/>
    <path class="cls-1" d="M11.19,37.4l-1.76,1.76.39.39,1.76-1.76-.39-.39Z"/>
    <path class="cls-1" d="M12.57,35.09l-1.76,1.76.39.39,1.76-1.76-.39-.39Z"/>
    <path class="cls-1" d="M13.03,35.56l-1.76,1.76.39.39,1.76-1.76-.39-.39Z"/>
    <path class="cls-1" d="M14.87,33.72l-1.76,1.76.39.39,1.76-1.76-.39-.39Z"/>
    <path class="cls-1" d="M21.4,27.54c0-.12-.04-.22-.13-.3l-.46-.46c-.08-.08-.19-.13-.3-.13-.12,0-.22.04-.3.13l-.76.76c-.08.08-.13.19-.13.3,0,.12.04.22.13.3l.46.46c.08.08.19.13.31.13.12,0,.22-.04.3-.12l.76-.76c.08-.08.13-.19.12-.31ZM20.24,28.27s-.04.02-.06,0l-.4-.4s-.01-.02-.01-.03,0-.02.01-.03l.7-.7s.02-.01.03-.01c.01,0,.02,0,.03.01l.4.4s.01.02.01.03c0,.01,0,.02-.01.03l-.7.7Z"/>
    <path class="cls-1" d="M22.84,26.1c0-.12-.04-.22-.13-.3l-.46-.46c-.08-.08-.19-.13-.3-.13-.12,0-.22.04-.3.13l-.76.76c-.08.08-.13.19-.13.3,0,.12.04.22.13.3l.46.46c.08.08.19.13.31.13.12,0,.22-.04.3-.12l.76-.76c.08-.08.13-.19.12-.31ZM21.68,26.83s-.04.02-.06,0l-.4-.4s-.01-.02-.01-.03c0-.01,0-.02.01-.03l.7-.7s.02-.01.03-.01c.01,0,.02,0,.03.01l.4.4s.01.02.01.03c0,.01,0,.02-.01.03l-.7.7Z"/>
    <path class="cls-1" d="M24.28,24.65c0-.12-.04-.22-.13-.3l-.46-.46c-.08-.08-.19-.13-.3-.13-.12,0-.22.04-.3.13l-.76.76c-.08.08-.13.19-.13.3,0,.12.04.22.13.3l.46.46c.08.08.19.13.31.13.12,0,.22-.04.3-.12l.76-.76c.08-.08.13-.19.12-.31ZM23.12,25.38s-.04.02-.06,0l-.4-.4s-.01-.02-.01-.03c0-.01,0-.02.01-.03l.7-.7s.02-.01.03-.01.02,0,.03.01l.4.4s.01.02.01.03c0,.01,0,.02-.01.03l-.7.7Z"/>
    <path class="cls-1" d="M25.72,23.21c0-.12-.04-.22-.13-.3l-.46-.46c-.08-.08-.19-.13-.3-.13-.12,0-.22.04-.3.13l-.76.76c-.08.08-.13.19-.13.3,0,.12.04.22.13.3l.46.46c.08.08.19.13.31.13.12,0,.22-.04.3-.12l.76-.76c.08-.08.13-.19.12-.31ZM24.56,23.94s-.04.02-.06,0l-.4-.4s-.01-.02-.01-.03c0-.01,0-.02.01-.03l.7-.7s.02-.01.03-.01c.01,0,.02,0,.03.01l.4.4s.01.02.01.03c0,.01,0,.02-.01.03l-.7.7Z"/>
    <path class="cls-1" d="M27.16,21.77c0-.12-.04-.22-.13-.3l-.46-.46c-.08-.08-.19-.13-.3-.13-.12,0-.22.04-.3.13l-.76.76c-.08.08-.13.19-.13.3,0,.12.04.22.13.3l.46.46c.08.08.19.13.31.13.12,0,.22-.04.3-.13l.76-.76c.08-.08.13-.19.12-.31ZM26.01,22.5s-.04.02-.06,0l-.4-.4s-.01-.02-.01-.03c0-.01,0-.02.01-.03l.7-.7s.02-.01.03-.01c.01,0,.02,0,.03.01l.4.4s.01.02.01.03c0,.01,0,.02-.01.03l-.7.7Z"/>
    <path class="cls-1" d="M28.6,20.33c0-.12-.04-.22-.13-.3l-.46-.46c-.08-.08-.19-.13-.3-.13-.12,0-.22.04-.3.13l-.76.76c-.08.08-.13.19-.13.3,0,.12.04.22.13.3l.46.46c.08.08.19.13.31.13.12,0,.22-.04.3-.13l.76-.76c.08-.08.13-.19.12-.31ZM27.45,21.06s-.04.02-.06,0l-.4-.4s-.01-.02-.01-.03c0-.01,0-.02.01-.03l.7-.7s.02-.01.03-.01c.01,0,.02,0,.03.01l.4.4s.01.02.01.03c0,.01,0,.02-.01.03l-.7.7Z"/>
    <path class="cls-1" d="M30.05,18.89c0-.1-.03-.18-.08-.25h0s0,0,0,0h0s0,0,0,0h0s0,0,0,0h0s0,0,0,0c0-.01-.02-.03-.03-.04l-.46-.46s-.02-.02-.03-.03t0,0h0s0,0,0,0h0s0,0,0,0h0s0,0,0,0h0s0,0,0,0h0s0,0,0,0h0s0,0,0,0h0s0,0,0,0h0s0,0,0,0h0s0,0,0,0h0s0,0,0,0h0c-.07-.06-.16-.08-.25-.08-.12,0-.22.04-.3.13l-.76.76c-.08.08-.13.19-.13.3,0,.12.04.22.13.3l.46.46c.08.08.19.13.31.13.12,0,.22-.04.3-.13l.76-.76c.08-.08.13-.19.12-.31ZM28.89,19.62s-.04.02-.06,0l-.4-.4s-.01-.02-.01-.03c0-.01,0-.02.01-.03l.7-.7s.02-.01.03-.01c.01,0,.02,0,.03.01l.4.4s.01.02.01.03c0,.01,0,.02-.01.03l-.7.7Z"/>
    <g>
      <path class="cls-1" d="M31.34,16.32l-1.76,1.76.39.39,1.76-1.76-.39-.39Z"/>
      <path class="cls-1" d="M33.17,14.48l-1.76,1.76.39.39,1.76-1.76-.39-.39Z"/>
      <path class="cls-1" d="M35.01,12.64l-1.76,1.76.39.39,1.76-1.76-.39-.39Z"/>
      <path class="cls-1" d="M36.85,10.8l-1.76,1.76.39.39,1.76-1.76-.39-.39Z"/>
      <path class="cls-1" d="M38.69,8.97l-1.77,1.77.39.39,1.77-1.77-.39-.39Z"/>
      <path class="cls-1" d="M40.59,7.47c-.07-.07-.13-.13-.2-.2l-1.62,1.62.39.39,1.62-1.62c-.06-.06-.13-.13-.19-.19Z"/>
    </g>
  </g>
  <g>
    <path class="cls-1" d="M18.1,27.34s.01-.05.01-.08c0-.01,0-.03,0-.04,0-.01,0-.03,0-.04,0-.01,0-.03,0-.04-.02-.08-.06-.16-.12-.22l-.45-.45c-.08-.08-.19-.13-.3-.13-.07,0-.14.02-.2.05,0,0-.02.01-.03.02-.03.02-.05.04-.08.06l-.76.76c-.05.05-.09.11-.11.18,0,.02-.01.04-.01.06,0,.02,0,.04,0,.06,0,0,0,.01,0,.02l.87.87s.01,0,.02,0c.12,0,.22-.04.3-.12l.76-.76c.05-.05.09-.11.11-.18ZM16.96,27.95s-.02.02-.03.02c0,0,0,0-.01,0,0,0,0,0,0,0,0,0,0,0-.01-.01l-.4-.4s-.01-.02-.01-.03c0,0,0,0,0,0,0,0,0-.02.01-.02l.7-.7s.02-.01.03-.01c0,0,0,0,0,0h0s0,0,0,0c.01,0,.02,0,.03.01l.4.4s0,0,0,.01c0,0,0,0,0,.01,0,0,0,0,0,0,0,0,0,0,0,0,0,0,0,.02-.01.02l-.7.7Z"/>
    <path class="cls-1" d="M12.61,31.45l-1.76,1.76.39.39,1.76-1.76-.39-.39Z"/>
    <path class="cls-1" d="M7.09,36.97l-1.6,1.6.35.43,1.64-1.64-.39-.39Z"/>
    <path class="cls-1" d="M16.28,27.78l-1.76,1.76.39.39,1.76-1.76-.39-.39Z"/>
    <path class="cls-1" d="M14.44,29.61l-1.76,1.76.39.39,1.76-1.76-.39-.39Z"/>
    <path class="cls-1" d="M12.14,30.99l-1.76,1.76.39.39,1.76-1.76-.39-.39Z"/>
    <path class="cls-1" d="M10.3,32.83l-1.76,1.76.39.39,1.76-1.76-.39-.39Z"/>
    <path class="cls-1" d="M8.46,34.67l-1.76,1.76.39.39,1.76-1.76-.39-.39Z"/>
    <path class="cls-1" d="M6.62,36.5l-1.53,1.53c.11.15.22.3.34.45l1.59-1.59-.39-.39Z"/>
    <path class="cls-1" d="M15.82,27.31l-1.76,1.76.39.39,1.76-1.76-.39-.39Z"/>
    <path class="cls-1" d="M13.98,29.15l-1.76,1.76.39.39,1.76-1.76-.39-.39Z"/>
    <path class="cls-1" d="M7.56,37.44l-1.65,1.65.36.42,1.68-1.68-.39-.39Z"/>
    <path class="cls-1" d="M16.75,28.24l-1.76,1.76.39.39,1.76-1.76-.39-.39Z"/>
    <path class="cls-1" d="M14.91,30.08l-1.76,1.76.39.39,1.76-1.76-.39-.39Z"/>
    <path class="cls-1" d="M8.93,35.13l-1.76,1.76.39.39,1.76-1.76-.39-.39Z"/>
    <path class="cls-1" d="M9.39,35.6l-1.76,1.76.39.39,1.76-1.76-.39-.39Z"/>
    <path class="cls-1" d="M10.77,33.29l-1.76,1.76.39.39,1.76-1.76-.39-.39Z"/>
    <path class="cls-1" d="M11.23,33.76l-1.76,1.76.39.39,1.76-1.76-.39-.39Z"/>
    <path class="cls-1" d="M13.07,31.92l-1.76,1.76.39.39,1.76-1.76-.39-.39Z"/>
    <path class="cls-1" d="M19.56,25.77c0-.12-.04-.22-.13-.3l-.46-.46c-.08-.08-.19-.13-.3-.13-.12,0-.22.04-.3.13l-.76.76c-.08.08-.13.19-.13.3,0,.12.04.22.13.3l.46.46c.08.08.19.13.31.13.12,0,.22-.04.3-.12l.76-.76c.08-.08.13-.19.12-.31ZM18.4,26.5s-.04.02-.06,0l-.4-.4s-.01-.02-.01-.03c0-.01,0-.02.01-.03l.7-.7s.02-.01.03-.01c.01,0,.02,0,.03.01l.4.4s.01.02.01.03c0,.01,0,.02-.01.03l-.7.7Z"/>
    <path class="cls-1" d="M21,24.33c0-.12-.04-.22-.13-.3l-.46-.46c-.08-.08-.19-.13-.3-.13-.12,0-.22.04-.3.13l-.76.76c-.08.08-.13.19-.13.3,0,.12.04.22.13.3l.46.46c.08.08.19.13.31.13.12,0,.22-.04.3-.13l.76-.76c.08-.08.13-.19.12-.31ZM19.85,25.06s-.04.02-.06,0l-.4-.4s-.01-.02-.01-.03c0-.01,0-.02.01-.03l.7-.7s.02-.01.03-.01c.01,0,.02,0,.03.01l.4.4s.01.02.01.03c0,.01,0,.02-.01.03l-.7.7Z"/>
    <path class="cls-1" d="M22.44,22.89c0-.12-.04-.22-.13-.3l-.46-.46c-.08-.08-.19-.13-.3-.13-.12,0-.22.04-.3.13l-.76.76c-.08.08-.13.19-.13.3,0,.12.04.22.13.3l.46.46c.08.08.19.13.31.13.12,0,.22-.04.3-.13l.76-.76c.08-.08.13-.19.12-.31ZM21.28,23.62s-.04.02-.06,0l-.4-.4s-.01-.02-.01-.03c0-.01,0-.02.01-.03l.7-.7s.02-.01.03-.01c.01,0,.02,0,.03.01l.4.4s.01.02.01.03c0,.01,0,.02-.01.03l-.7.7Z"/>
    <path class="cls-1" d="M23.88,21.45c0-.12-.04-.22-.13-.3l-.46-.46c-.08-.08-.19-.13-.3-.13-.12,0-.22.04-.3.13l-.76.76c-.08.08-.13.19-.13.3,0,.12.04.22.13.3l.46.46c.08.08.19.13.31.13.12,0,.22-.04.3-.12l.76-.76c.08-.08.13-.19.12-.31ZM22.73,22.18s-.04.02-.06,0l-.4-.4s-.01-.02-.01-.03c0-.01,0-.02.01-.03l.7-.7s.02-.01.03-.01c.01,0,.02,0,.03.01l.4.4s.01.02.01.03c0,.01,0,.02-.01.03l-.7.7Z"/>
    <path class="cls-1" d="M25.33,20.01c0-.12-.04-.22-.13-.3l-.46-.46c-.08-.08-.19-.13-.3-.13-.12,0-.22.04-.3.13l-.76.76c-.08.08-.13.19-.13.3,0,.12.04.22.13.3l.46.46c.08.08.19.13.31.13.12,0,.22-.04.3-.12l.76-.76c.08-.08.13-.19.12-.31ZM24.17,20.74s-.04.02-.06,0l-.4-.4s-.01-.02-.01-.03c0-.01,0-.02.01-.03l.7-.7s.02-.01.03-.01c.01,0,.02,0,.03.01l.4.4s.01.02.01.03c0,.01,0,.02-.01.03l-.7.7Z"/>
    <path class="cls-1" d="M26.77,18.56c0-.12-.04-.22-.13-.3l-.46-.46c-.08-.08-.19-.13-.3-.13-.12,0-.22.04-.3.13l-.76.76c-.08.08-.13.19-.13.3,0,.12.04.22.13.3l.46.46c.08.08.19.13.31.13.12,0,.22-.04.3-.12l.76-.76c.08-.08.13-.19.12-.31ZM25.61,19.29s-.04.02-.06,0l-.4-.4s-.01-.02-.01-.03c0-.01,0-.02.01-.03l.7-.7s.02-.01.03-.01c.01,0,.02,0,.03.01l.4.4s.01.02.01.03c0,.01,0,.02-.01.03l-.7.7Z"/>
    <path class="cls-1" d="M28.21,17.12c0-.12-.04-.22-.13-.3l-.46-.46s-.06-.06-.1-.08c-.06-.03-.13-.05-.2-.05-.12,0-.22.04-.3.13l-.76.76c-.08.08-.13.19-.13.3,0,.12.04.22.13.3l.46.46c.08.08.19.13.31.13.12,0,.22-.04.3-.12l.76-.76c.08-.08.13-.19.12-.31ZM27.05,17.85s-.04.02-.06,0l-.4-.4s-.01-.02-.01-.03c0-.01,0-.02.01-.03l.7-.7s.02-.01.03-.01c.01,0,.02,0,.03.01l.4.4s.01.02.01.03c0,.01,0,.02-.01.03l-.7.7Z"/>
    <g>
      <path class="cls-1" d="M29.5,14.56l-1.77,1.77.39.39,1.77-1.77-.39-.39Z"/>
      <path class="cls-1" d="M31.34,12.72l-1.77,1.77.39.39,1.77-1.77-.39-.39Z"/>
      <path class="cls-1" d="M33.18,10.88l-1.76,1.76.39.39,1.76-1.76-.39-.39Z"/>
      <path class="cls-1" d="M35.02,9.04l-1.76,1.76.39.39,1.76-1.76-.39-.39Z"/>
      <path class="cls-1" d="M36.85,7.2l-1.76,1.76.39.39,1.76-1.76-.39-.39Z"/>
      <path class="cls-1" d="M38.47,5.59l-1.54,1.54.39.39,1.58-1.58c-.14-.12-.29-.23-.43-.35Z"/>
    </g>
  </g>
  <g>
    <path class="cls-1" d="M16.09,25.82l-.76.76-.33-.33s.04.01.06,0l.7-.7s.01-.02.01-.03c0-.01,0-.02-.01-.03l-.4-.4s-.02-.01-.03-.01c-.01,0-.02,0-.03.01l-.7.7s-.01.02-.01.03c0,.01,0,.02.01.03l-.33-.33.76-.76c.08-.08.19-.13.3-.13.12,0,.22.04.3.13l.46.46c.08.08.13.18.13.3,0,.12-.04.22-.12.31Z"/>
    <path class="cls-1" d="M16.21,25.51c0-.12-.04-.22-.13-.3l-.46-.46c-.08-.08-.19-.13-.3-.13-.12,0-.22.04-.3.13l-.76.76.33.33s-.01-.02-.01-.03c0-.01,0-.02.01-.03l.7-.7s.02-.01.03-.01c.01,0,.02,0,.03.01l.4.4s.01.02.01.03c0,.01,0,.02-.01.03l-.7.7s-.04.02-.06,0l.33.33.76-.76c.08-.08.13-.19.12-.31Z"/>
    <g>
      <path class="cls-1" d="M10.93,29.53l-1.76,1.76.39.39,1.76-1.76-.39-.39Z"/>
      <path class="cls-1" d="M5.41,35.05l-1.4,1.4c.1.16.2.32.31.48l1.49-1.49-.39-.39Z"/>
      <path class="cls-1" d="M14.6,25.85l-1.76,1.76.39.39,1.76-1.76-.39-.39Z"/>
      <path class="cls-1" d="M12.76,27.69l-1.76,1.76.39.39,1.76-1.76-.39-.39Z"/>
      <path class="cls-1" d="M10.46,29.07l-1.76,1.76.39.39,1.76-1.76-.39-.39Z"/>
      <path class="cls-1" d="M8.62,30.9l-1.76,1.76.39.39,1.76-1.76-.39-.39Z"/>
      <path class="cls-1" d="M6.78,32.74l-1.77,1.77.39.39,1.77-1.77-.39-.39Z"/>
      <path class="cls-1" d="M4.94,34.58l-1.28,1.28c.09.16.19.33.29.49l1.38-1.38-.39-.39Z"/>
      <path class="cls-1" d="M14.14,25.39l-1.76,1.76.39.39,1.76-1.76-.39-.39Z"/>
      <path class="cls-1" d="M12.3,27.23l-1.76,1.76.39.39,1.76-1.76-.39-.39Z"/>
      <path class="cls-1" d="M5.87,35.51l-1.5,1.5c.1.16.21.31.32.47l1.58-1.58-.39-.39Z"/>
      <path class="cls-1" d="M15.07,26.32l-1.76,1.76.39.39,1.76-1.76-.39-.39Z"/>
      <path class="cls-1" d="M13.23,28.16l-1.76,1.76.39.39,1.76-1.76-.39-.39Z"/>
      <path class="cls-1" d="M7.25,33.21l-1.77,1.77.39.39,1.77-1.77-.39-.39Z"/>
      <path class="cls-1" d="M7.71,33.68l-1.77,1.77.39.39,1.77-1.77-.39-.39Z"/>
      <path class="cls-1" d="M9.09,31.37l-1.76,1.76.39.39,1.76-1.76-.39-.39Z"/>
      <path class="cls-1" d="M9.55,31.84l-1.76,1.76.39.39,1.76-1.76-.39-.39Z"/>
      <path class="cls-1" d="M11.39,30l-1.76,1.76.39.39,1.76-1.76-.39-.39Z"/>
    </g>
    <path class="cls-1" d="M17.65,24.07c0-.12-.04-.22-.13-.3l-.45-.45c-.08-.08-.19-.13-.3-.13-.12,0-.22.04-.3.13l-.76.76c-.08.08-.13.19-.13.3,0,.12.04.22.13.3l.45.45c.08.08.19.13.31.13.12,0,.22-.04.3-.12l.76-.76c.08-.08.13-.19.12-.31ZM16.5,24.8s-.04.02-.06,0l-.4-.4s-.01-.02-.01-.03c0-.01,0-.02.01-.03l.7-.7s.02-.01.03-.01c.01,0,.02,0,.03.01l.4.4s.01.02.01.03,0,.02-.01.03l-.7.7Z"/>
    <path class="cls-1" d="M19.1,22.63c0-.12-.04-.22-.13-.3l-.45-.45c-.08-.08-.19-.13-.3-.13-.12,0-.22.04-.3.13l-.76.76c-.08.08-.13.19-.13.3,0,.12.04.22.13.3l.45.45c.08.08.19.13.31.13.12,0,.22-.04.3-.12l.76-.76c.08-.08.13-.19.12-.31ZM17.94,23.36s-.04.02-.06,0l-.4-.4s-.01-.02-.01-.03c0-.01,0-.02.01-.03l.7-.7s.02-.01.03-.01c.01,0,.02,0,.03.01l.4.4s.01.02.01.03c0,.01,0,.02-.01.03l-.7.7Z"/>
    <path class="cls-1" d="M20.54,21.19c0-.12-.04-.22-.13-.3l-.46-.46c-.08-.08-.19-.13-.3-.13-.12,0-.22.04-.3.13l-.76.76c-.08.08-.13.19-.13.3,0,.12.04.22.13.3l.46.46c.08.08.19.13.31.13.12,0,.22-.04.3-.13l.76-.76c.08-.08.13-.19.12-.31ZM19.38,21.92s-.04.02-.06,0l-.4-.4s-.01-.02-.01-.03c0-.01,0-.02.01-.03l.7-.7s.02-.01.03-.01c.01,0,.02,0,.03.01l.4.4s.01.02.01.03c0,.01,0,.02-.01.03l-.7.7Z"/>
    <path class="cls-1" d="M21.98,19.74c0-.12-.04-.22-.13-.3l-.46-.46c-.08-.08-.19-.13-.3-.13-.12,0-.22.04-.3.13l-.76.76c-.08.08-.13.19-.13.3,0,.12.04.22.13.3l.46.46c.08.08.19.13.31.13.12,0,.22-.04.3-.12l.76-.76c.08-.08.13-.19.12-.31ZM20.82,20.47s-.04.02-.06,0l-.4-.4s-.01-.02-.01-.03,0-.02.01-.03l.7-.7s.02-.01.03-.01c.01,0,.02,0,.03.01l.4.4s.01.02.01.03c0,.01,0,.02-.01.03l-.7.7Z"/>
    <path class="cls-1" d="M23.42,18.3c0-.12-.04-.22-.13-.3l-.46-.46c-.08-.08-.19-.13-.3-.13-.12,0-.22.04-.3.13l-.76.76c-.08.08-.13.19-.13.3,0,.12.04.22.13.3l.46.46c.08.08.19.13.31.13.12,0,.22-.04.3-.12l.76-.76c.08-.08.13-.19.12-.31ZM22.26,19.03s-.04.02-.06,0l-.4-.4s-.01-.02-.01-.03c0-.01,0-.02.01-.03l.7-.7s.02-.01.03-.01c.01,0,.02,0,.03.01l.4.4s.01.02.01.03c0,.01,0,.02-.01.03l-.7.7Z"/>
    <path class="cls-1" d="M24.86,16.86c0-.12-.04-.22-.13-.3l-.46-.46c-.08-.08-.19-.13-.3-.13-.12,0-.22.04-.3.13l-.76.76c-.08.08-.13.19-.13.3,0,.12.04.22.13.3l.46.46c.08.08.19.13.31.13.12,0,.22-.04.3-.12l.76-.76c.08-.08.13-.19.12-.31ZM23.7,17.59s-.04.02-.06,0l-.4-.4s-.01-.02-.01-.03c0-.01,0-.02.01-.03l.7-.7s.02-.01.03-.01.02,0,.03.01l.4.4s.01.02.01.03,0,.02-.01.03l-.7.7Z"/>
    <path class="cls-1" d="M26.3,15.42c0-.12-.04-.22-.13-.3l-.46-.46s-.1-.08-.16-.1c-.05-.02-.09-.03-.15-.03-.12,0-.22.04-.3.13l-.76.76c-.08.08-.13.19-.13.3,0,.12.04.22.13.3l.46.46c.08.08.19.13.31.13.12,0,.22-.04.3-.12l.76-.76c.08-.08.13-.19.12-.31ZM25.14,16.15s-.04.02-.06,0l-.4-.4s-.01-.02-.01-.03c0-.01,0-.02.01-.03l.7-.7s.02-.01.03-.01c.01,0,.02,0,.03.01l.4.4s.01.02.01.03c0,.01,0,.02-.01.03l-.7.7Z"/>
    <g>
      <path class="cls-1" d="M27.59,12.85l-1.77,1.77.39.39,1.77-1.77-.39-.39Z"/>
      <path class="cls-1" d="M29.43,11.02l-1.77,1.77.39.39,1.77-1.77-.39-.39Z"/>
      <path class="cls-1" d="M31.27,9.18l-1.76,1.76.39.39,1.76-1.76-.39-.39Z"/>
      <path class="cls-1" d="M33.11,7.34l-1.76,1.76.39.39,1.76-1.76-.39-.39Z"/>
      <path class="cls-1" d="M34.95,5.5l-1.76,1.76.39.39,1.76-1.76-.39-.39Z"/>
      <path class="cls-1" d="M36.34,4.1l-1.32,1.32.39.39,1.41-1.41c-.16-.1-.32-.21-.48-.31Z"/>
    </g>
  </g>
  <g>
    <g>
      <path class="cls-1" d="M2.84,16.05l-1.4,1.4c-.06.19-.11.38-.16.58l.18.18,1.76-1.76-.39-.39Z"/>
      <path class="cls-1" d="M6.52,12.37l-1.76,1.76.39.39,1.76-1.76-.39-.39Z"/>
      <path class="cls-1" d="M4.68,14.21l-1.76,1.76.39.39,1.76-1.76-.39-.39Z"/>
      <path class="cls-1" d="M2.37,15.59l-.48.48c-.14.39-.27.78-.39,1.17l1.26-1.26-.39-.39Z"/>
      <path class="cls-1" d="M6.05,11.91l-1.76,1.76.39.39,1.76-1.76-.39-.39Z"/>
      <path class="cls-1" d="M4.21,13.75l-1.76,1.76.39.39,1.76-1.76-.39-.39Z"/>
      <path class="cls-1" d="M6.98,12.84l-1.76,1.76.39.39,1.76-1.76-.39-.39Z"/>
      <path class="cls-1" d="M5.15,14.68l-1.76,1.76.39.39,1.76-1.76-.39-.39Z"/>
      <path class="cls-1" d="M1.25,18.14c-.03.13-.06.25-.09.38l.24-.24-.14-.14Z"/>
      <path class="cls-1" d="M1.47,18.36l-.36.36c-.08.33-.15.66-.21.99l.96-.96-.39-.39Z"/>
      <path class="cls-1" d="M3.31,16.52l-1.76,1.76.39.39,1.76-1.76-.39-.39Z"/>
    </g>
    <path class="cls-1" d="M8.44,11.67c0-.12-.04-.22-.13-.3l-.45-.45c-.08-.08-.19-.13-.3-.13-.12,0-.22.04-.3.13l-.76.76c-.08.08-.13.19-.13.3,0,.12.04.22.13.3l.45.45c.08.08.19.13.31.13.12,0,.22-.04.3-.12l.76-.76c.08-.08.13-.19.13-.31ZM7.29,12.4s-.04.02-.06,0l-.4-.4s-.01-.02-.01-.03c0-.01,0-.02.01-.03l.7-.7s.02-.01.03-.01c.01,0,.02,0,.03.01l.4.4s.01.02.01.03c0,.01,0,.02-.01.03l-.7.7Z"/>
    <path class="cls-1" d="M9.88,10.23c0-.12-.04-.22-.13-.3l-.45-.45c-.08-.08-.19-.13-.3-.13-.12,0-.22.04-.3.13l-.76.76c-.08.08-.13.19-.13.3,0,.12.04.22.13.3l.45.45c.08.08.19.13.31.13.12,0,.22-.04.3-.12l.76-.76c.08-.08.13-.19.12-.31ZM8.73,10.96s-.04.02-.06,0l-.4-.4s-.01-.02-.01-.03c0-.01,0-.02.01-.03l.7-.7s.02-.01.03-.01c.01,0,.02,0,.03.01l.4.4s.01.02.01.03c0,.01,0,.02-.01.03l-.7.7Z"/>
    <path class="cls-1" d="M11.33,8.79c0-.12-.04-.22-.13-.3l-.45-.45c-.08-.08-.19-.13-.3-.13-.12,0-.22.04-.3.13l-.76.76c-.08.08-.13.19-.13.3,0,.12.04.22.13.3l.45.45c.08.08.19.13.31.13.12,0,.22-.04.3-.12l.76-.76c.08-.08.13-.19.12-.31ZM10.17,9.52s-.04.02-.06,0l-.4-.4s-.01-.02-.01-.03c0-.01,0-.02.01-.03l.7-.7s.02-.01.03-.01c.01,0,.02,0,.03.01l.4.4s.01.02.01.03c0,.01,0,.02-.01.03l-.7.7Z"/>
    <path class="cls-1" d="M12.77,7.35c0-.12-.04-.22-.13-.3l-.45-.45c-.08-.08-.19-.13-.3-.13-.12,0-.22.04-.3.13l-.76.76c-.08.08-.13.19-.13.3,0,.12.04.22.13.3l.45.45c.08.08.19.13.31.13.12,0,.22-.04.3-.12l.76-.76c.08-.08.13-.19.12-.31ZM11.61,8.08s-.04.02-.06,0l-.4-.4s-.01-.02-.01-.03c0-.01,0-.02.01-.03l.7-.7s.02-.01.03-.01c.01,0,.02,0,.03.01l.4.4s.01.02.01.03c0,.01,0,.02-.01.03l-.7.7Z"/>
    <g>
      <path class="cls-1" d="M14.06,4.78l-1.77,1.77.39.39,1.77-1.77-.39-.39Z"/>
      <path class="cls-1" d="M15.9,2.94l-1.76,1.76.39.39,1.76-1.76-.39-.39Z"/>
      <path class="cls-1" d="M17.99,1.36c-.24.06-.48.13-.72.2l-1.31,1.31.39.39,1.76-1.76-.13-.13Z"/>
      <path class="cls-1" d="M18.11,1.33l.09.09.15-.15c-.08.02-.16.04-.24.06Z"/>
    </g>
  </g>
  <g>
    <path class="cls-1" d="M21.6,31.11s0,0,.01-.01c0,0,.01-.02.02-.02.01-.02.03-.04.04-.06.02-.04.04-.09.04-.13,0-.01,0-.02,0-.03,0,0,0-.01,0-.02,0,0,0,0,0-.01h0c0-.12-.04-.22-.13-.3l-.45-.45c-.08-.08-.19-.13-.3-.13-.03,0-.06,0-.09,0-.08.02-.16.06-.22.12l-.76.76c-.08.08-.13.19-.13.3,0,0,0,0,0,.01l.69.7.18.18s0,0,0,0c0,0,0,0,.01,0t0,0h0s.03,0,.04,0c.01,0,.03,0,.04,0s.03,0,.04-.01c.07-.02.12-.05.18-.11l.76-.76s0,0,.01-.01ZM20.56,31.54s-.02.02-.03.02c0,0-.01,0-.02,0h0s-.01,0-.01-.01l-.4-.4s0,0,0-.01c0,0,0,0,0,0,0,0,0,0,0,0h0s0-.01,0-.02c0,0,0-.01.01-.01l.7-.7s.02-.01.03-.01c.01,0,.02,0,.03.01l.4.4s.01.02.01.03c0,.01,0,.02-.01.03l-.7.7Z"/>
    <path class="cls-1" d="M16.2,35.05l-1.76,1.76.39.39,1.76-1.76-.39-.39Z"/>
    <path class="cls-1" d="M10.68,40.57l-1.64,1.64.43.35,1.6-1.6-.39-.39Z"/>
    <path class="cls-1" d="M19.88,31.37l-1.76,1.76.39.39,1.76-1.76-.39-.39Z"/>
    <path class="cls-1" d="M18.04,33.21l-1.76,1.76.39.39,1.76-1.76-.39-.39Z"/>
    <path class="cls-1" d="M15.74,34.58l-1.76,1.76.39.39,1.76-1.76-.39-.39Z"/>
    <path class="cls-1" d="M13.9,36.42l-1.76,1.76.39.39,1.76-1.76-.39-.39Z"/>
    <path class="cls-1" d="M12.06,38.26l-1.76,1.76.39.39,1.76-1.76-.39-.39Z"/>
    <path class="cls-1" d="M10.22,40.1l-1.68,1.68.42.36,1.65-1.65-.39-.39Z"/>
    <path class="cls-1" d="M19.41,30.91l-1.76,1.76.39.39,1.76-1.76-.39-.39Z"/>
    <path class="cls-1" d="M17.57,32.74l-1.76,1.76.39.39,1.76-1.76-.39-.39Z"/>
    <path class="cls-1" d="M11.15,41.03l-1.59,1.59c.15.11.3.23.44.34l1.53-1.53-.39-.39Z"/>
    <path class="cls-1" d="M20.35,31.84l-1.76,1.76.39.39,1.76-1.76-.39-.39Z"/>
    <path class="cls-1" d="M18.51,33.68l-1.76,1.76.39.39,1.76-1.76-.39-.39Z"/>
    <path class="cls-1" d="M12.52,38.73l-1.76,1.76.39.39,1.76-1.76-.39-.39Z"/>
    <path class="cls-1" d="M12.99,39.19l-1.76,1.76.39.39,1.76-1.76-.39-.39Z"/>
    <path class="cls-1" d="M14.36,36.89l-1.76,1.76.39.39,1.76-1.76-.39-.39Z"/>
    <path class="cls-1" d="M14.83,37.35l-1.76,1.76.39.39,1.76-1.76-.39-.39Z"/>
    <path class="cls-1" d="M16.67,35.52l-1.76,1.76.39.39,1.76-1.76-.39-.39Z"/>
    <path class="cls-1" d="M23.16,29.37c0-.12-.04-.22-.13-.3l-.45-.45c-.08-.08-.19-.13-.3-.13-.12,0-.22.04-.3.13l-.76.76c-.08.08-.13.19-.13.3,0,.12.04.22.13.3l.45.45c.08.08.19.13.31.13.12,0,.22-.04.3-.12l.76-.76c.08-.08.13-.19.12-.31ZM22,30.1s-.04.02-.06,0l-.4-.4s-.01-.02-.01-.03c0-.01,0-.02.01-.03l.7-.7s.02-.01.03-.01c.01,0,.02,0,.03.01l.4.4s.01.02.01.03c0,.01,0,.02-.01.03l-.7.7Z"/>
    <path class="cls-1" d="M24.6,27.93c0-.12-.04-.22-.13-.3l-.45-.45c-.08-.08-.19-.13-.3-.13-.12,0-.22.04-.3.13l-.76.76c-.08.08-.13.19-.13.3,0,.12.04.22.13.3l.45.45c.08.08.19.13.31.13.12,0,.22-.04.3-.12l.76-.76c.08-.08.13-.19.12-.31ZM23.44,28.66s-.04.02-.06,0l-.4-.4s-.01-.02-.01-.03c0-.01,0-.02.01-.03l.7-.7s.02-.01.03-.01c.01,0,.02,0,.03.01l.4.4s.01.02.01.03c0,.01,0,.02-.01.03l-.7.7Z"/>
    <path class="cls-1" d="M26.04,26.49c0-.12-.04-.22-.13-.3l-.46-.46c-.08-.08-.19-.13-.3-.13-.12,0-.22.04-.3.13l-.76.76c-.08.08-.13.19-.13.3,0,.12.04.22.13.3l.46.46c.08.08.19.13.31.13.12,0,.22-.04.3-.13l.76-.76c.08-.08.13-.19.12-.31ZM24.88,27.22s-.04.02-.06,0l-.4-.4s-.01-.02-.01-.03c0-.01,0-.02.01-.03l.7-.7s.02-.01.03-.01c.01,0,.02,0,.03.01l.4.4s.01.02.01.03c0,.01,0,.02-.01.03l-.7.7Z"/>
    <path class="cls-1" d="M27.48,25.05c0-.12-.04-.22-.13-.3l-.46-.46c-.08-.08-.19-.13-.3-.13-.12,0-.22.04-.3.13l-.76.76c-.08.08-.13.19-.13.3,0,.12.04.22.13.3l.46.46c.08.08.19.13.31.13.12,0,.22-.04.3-.12l.76-.76c.08-.08.13-.19.12-.31ZM26.32,25.78s-.04.02-.06,0l-.4-.4s-.01-.02-.01-.03c0-.01,0-.02.01-.03l.7-.7s.02-.01.03-.01c.01,0,.02,0,.03.01l.4.4s.01.02.01.03c0,.01,0,.02-.01.03l-.7.7Z"/>
    <path class="cls-1" d="M28.92,23.6c0-.12-.04-.22-.13-.3l-.46-.46c-.08-.08-.19-.13-.3-.13-.12,0-.22.04-.3.13l-.76.76c-.08.08-.13.19-.13.3,0,.12.04.22.13.3l.46.46c.08.08.19.13.31.13.12,0,.22-.04.3-.12l.76-.76c.08-.08.13-.19.12-.31ZM27.77,24.33s-.04.02-.06,0l-.4-.4s-.01-.02-.01-.03c0-.01,0-.02.01-.03l.7-.7s.02-.01.03-.01c.01,0,.02,0,.03.01l.4.4s.01.02.01.03c0,.01,0,.02-.01.03l-.7.7Z"/>
    <path class="cls-1" d="M30.36,22.16c0-.12-.04-.22-.13-.3l-.46-.46c-.08-.08-.19-.13-.3-.13-.12,0-.22.04-.3.13l-.76.76c-.08.08-.13.19-.13.3,0,.12.04.22.13.3l.46.46c.08.08.19.13.31.13.12,0,.22-.04.3-.12l.76-.76c.08-.08.13-.19.12-.31ZM29.21,22.89s-.04.02-.06,0l-.4-.4s-.01-.02-.01-.03c0-.01,0-.02.01-.03l.7-.7s.02-.01.03-.01c.01,0,.02,0,.03.01l.4.4s.01.02.01.03c0,.01,0,.02-.01.03l-.7.7Z"/>
    <path class="cls-1" d="M31.81,20.72c0-.08-.02-.14-.05-.21-.02-.04-.04-.07-.07-.1l-.46-.46c-.08-.08-.19-.13-.3-.13-.12,0-.22.04-.3.13l-.76.76c-.08.08-.13.19-.13.3,0,.12.04.22.13.3l.46.46c.08.08.19.13.31.13.12,0,.22-.04.3-.12l.76-.76c.08-.08.13-.19.12-.31ZM30.65,21.45s-.04.02-.06,0l-.4-.4s-.01-.02-.01-.03c0-.01,0-.02.01-.03l.7-.7s.02-.01.03-.01c.01,0,.02,0,.03.01l.4.4s.01.02.01.03c0,.01,0,.02-.01.03l-.7.7Z"/>
    <g>
      <path class="cls-1" d="M33.1,18.16l-1.77,1.77.39.39,1.77-1.77-.39-.39Z"/>
      <path class="cls-1" d="M34.93,16.32l-1.77,1.77.39.39,1.77-1.77-.39-.39Z"/>
      <path class="cls-1" d="M36.77,14.48l-1.76,1.76.39.39,1.76-1.76-.39-.39Z"/>
      <path class="cls-1" d="M38.61,12.64l-1.76,1.76.39.39,1.76-1.76-.39-.39Z"/>
      <path class="cls-1" d="M40.45,10.8l-1.76,1.76.39.39,1.76-1.76-.39-.39Z"/>
      <path class="cls-1" d="M42.11,9.14l-1.58,1.58.39.39,1.54-1.54c-.11-.15-.23-.29-.35-.43Z"/>
    </g>
  </g>
  <g>
    <g>
      <path class="cls-1" d="M31.61,44.8l-1.76,1.76.2.2c.18-.05.35-.09.53-.15l1.43-1.43-.39-.39Z"/>
      <path class="cls-1" d="M35.29,41.13l-1.76,1.76.39.39,1.76-1.76-.39-.39Z"/>
      <path class="cls-1" d="M33.45,42.96l-1.76,1.76.39.39,1.76-1.76-.39-.39Z"/>
      <path class="cls-1" d="M31.14,44.34l-1.76,1.76.39.39,1.76-1.76-.39-.39Z"/>
      <path class="cls-1" d="M29.31,46.18l-.98.98c.33-.06.66-.13.99-.21l.39-.39-.39-.39Z"/>
      <path class="cls-1" d="M34.82,40.66l-1.76,1.76.39.39,1.76-1.76-.39-.39Z"/>
      <path class="cls-1" d="M32.98,42.5l-1.76,1.76.39.39,1.76-1.76-.39-.39Z"/>
      <path class="cls-1" d="M35.75,41.59l-1.76,1.76.39.39,1.76-1.76-.39-.39Z"/>
      <path class="cls-1" d="M33.92,43.43l-1.76,1.76.39.39,1.76-1.76-.39-.39Z"/>
      <path class="cls-1" d="M29.77,46.64l-.27.27c.14-.03.28-.07.42-.11l-.16-.16Z"/>
      <path class="cls-1" d="M32.08,45.27l-1.29,1.29c.39-.12.78-.25,1.17-.39l.51-.51-.39-.39Z"/>
    </g>
    <path class="cls-1" d="M37.24,40.45c0-.12-.04-.22-.13-.3l-.46-.46c-.08-.08-.19-.13-.3-.13-.12,0-.22.04-.3.13l-.76.76c-.08.08-.13.19-.13.3,0,.12.04.22.13.3l.46.46c.08.08.19.13.31.13.11,0,.21-.04.29-.11,0,0,0,0,.01-.01l.76-.76c.08-.08.13-.19.13-.31ZM35.62,40.78s-.01-.02-.01-.03c0-.01,0-.02.01-.03l.7-.7s.02-.01.03-.01c.01,0,.02,0,.03.01l.4.4s.01.02.01.03c0,.01,0,.02-.01.03l-.7.7s-.04.02-.06,0l-.4-.4Z"/>
    <path class="cls-1" d="M38.68,39c0-.12-.04-.22-.13-.3l-.46-.46c-.08-.08-.19-.13-.3-.13-.12,0-.22.04-.3.13l-.76.76c-.08.08-.13.19-.13.3,0,.12.04.22.13.3l.46.46c.08.08.19.13.31.13.12,0,.22-.04.3-.12l.76-.76c.08-.08.13-.19.12-.31ZM37.52,39.74s-.04.02-.06,0l-.4-.4s-.01-.02-.01-.03c0-.01,0-.02.01-.03l.7-.7s.02-.01.03-.01c.01,0,.02,0,.03.01l.4.4s.01.02.01.03c0,.01,0,.02-.01.03l-.7.7Z"/>
    <path class="cls-1" d="M40.12,37.56c0-.12-.04-.22-.13-.3l-.46-.46c-.08-.08-.19-.13-.3-.13-.12,0-.22.04-.3.13l-.76.76c-.08.08-.13.19-.13.3,0,.12.04.22.13.3l.46.46c.08.08.19.13.31.13.12,0,.22-.04.3-.12l.76-.76c.08-.08.13-.19.12-.31ZM38.96,38.29s-.04.02-.06,0l-.4-.4s-.01-.02-.01-.03c0-.01,0-.02.01-.03l.7-.7s.02-.01.03-.01c.01,0,.02,0,.03.01l.4.4s.01.02.01.03c0,.01,0,.02-.01.03l-.7.7Z"/>
    <path class="cls-1" d="M41.56,36.12c0-.12-.04-.22-.13-.3l-.46-.46c-.08-.08-.19-.13-.3-.13-.12,0-.22.04-.3.13l-.76.76c-.08.08-.13.19-.13.3,0,.12.04.22.13.3l.46.46c.08.08.19.13.31.13.12,0,.22-.04.3-.12l.76-.76c.08-.08.13-.19.12-.31ZM40.41,36.85s-.04.02-.06,0l-.4-.4s-.01-.02-.01-.03,0-.02.01-.03l.7-.7s.02-.01.03-.01c.01,0,.02,0,.03.01l.4.4s.01.02.01.03c0,.01,0,.02-.01.03l-.7.7Z"/>
    <g>
      <path class="cls-1" d="M42.85,33.56l-1.77,1.77.39.39,1.77-1.77-.39-.39Z"/>
      <path class="cls-1" d="M44.69,31.72l-1.76,1.76.39.39,1.76-1.76-.39-.39Z"/>
      <path class="cls-1" d="M46.7,30.05l-.17-.17-1.76,1.76.39.39,1.37-1.37c.06-.2.12-.41.17-.61Z"/>
      <path class="cls-1" d="M46.81,29.59l-.21.21.13.13c.03-.11.06-.22.08-.34Z"/>
    </g>
  </g>
  <g>
    <g>
      <path class="cls-1" d="M7.94,8.59c0-.12-.04-.22-.13-.3l-.46-.46c-.06-.06-.13-.1-.21-.12,0,0-.01,0-.01,0-.33.34-.65.69-.96,1.05h0s.16.16.16.16c0,0-.01-.02-.01-.03,0-.01,0-.02.01-.03l.7-.7s.02-.01.03-.01.02,0,.03.01l.4.4s.01.02.01.03,0,.02-.01.03l-.7.7s-.04.02-.06,0l.33.33.76-.76c.08-.08.13-.19.12-.31Z"/>
      <path class="cls-1" d="M9.38,7.15c0-.12-.04-.22-.13-.3l-.46-.46s-.1-.08-.16-.1c-.4.35-.8.71-1.18,1.09h0s-.07.06-.1.1c-.01.01-.03.03-.04.05,0,0,0,0,0,0,.01.09.05.16.12.23l.46.46c.08.08.19.13.31.13.12,0,.22-.04.3-.12l.76-.76c.08-.08.13-.19.12-.31ZM8.22,7.88s-.04.02-.06,0l-.4-.4s-.01-.02-.01-.03c0-.01,0-.02.01-.03l.7-.7s.02-.01.03-.01c.01,0,.02,0,.03.01l.4.4s.01.02.01.03c0,.01,0,.02-.01.03l-.7.7Z"/>
      <g>
        <path class="cls-1" d="M10.75,4.67c-.18.12-.35.25-.53.37l-1.31,1.31.39.39,1.77-1.77-.31-.31Z"/>
        <path class="cls-1" d="M10.84,4.61l.3.3,1.28-1.28c-.54.3-1.06.63-1.58.98Z"/>
      </g>
    </g>
    <g>
      <path class="cls-1" d="M6.33,8.93l-1.44,1.44h0c-.09.12-.17.24-.25.36,0,0-.01.01-.01.02l.33.33,1.77-1.77-.39-.39Z"/>
      <path class="cls-1" d="M4.57,10.85c-.37.54-.72,1.1-1.04,1.67l1.36-1.36-.32-.32Z"/>
      <path class="cls-1" d="M6.17,8.77c-.09.1-.18.21-.26.31-.03.04-.07.08-.1.12-.15.18-.29.36-.44.55l.89-.89-.09-.09Z"/>
      <path class="cls-1" d="M6.8,9.4l-1.77,1.77.39.39,1.77-1.77-.39-.39Z"/>
      <path class="cls-1" d="M4.96,11.24l-1.61,1.61-.11.2.35.35,1.77-1.77-.39-.39Z"/>
      <path class="cls-1" d="M3.19,13.14c-.22.42-.43.84-.62,1.27l.94-.94-.32-.32Z"/>
    </g>
    <line class="cls-1" x1="5.65" y1="9.62" x2="5.95" y2="9.31"/>
  </g>
  <g>
    <g>
      <path class="cls-1" d="M39.13,40.21l-.76.76.33.33s-.02-.04,0-.06l.7-.7s.02-.01.03-.01.02,0,.03.01l.4.4s.01.02.01.03,0,.02-.01.03l-.7.7s-.02.01-.03.01c-.01,0-.02,0-.03-.01l.16.16h0c.36-.31.71-.63,1.05-.96,0,0,0-.01,0-.01-.02-.08-.06-.15-.12-.21l-.46-.46c-.08-.08-.18-.13-.3-.13-.12,0-.22.04-.31.12Z"/>
      <path class="cls-1" d="M40.57,38.76l-.76.76c-.08.08-.12.18-.12.3,0,.12.04.22.13.31l.46.46c.07.07.14.11.23.12,0,0,0,0,0,0,.02-.01.03-.03.05-.04.03-.03.07-.07.1-.1h0c.38-.39.74-.78,1.09-1.18-.02-.06-.05-.11-.1-.16l-.46-.46c-.08-.08-.19-.13-.3-.13-.12,0-.22.04-.31.12ZM40.85,39.1s.02-.01.03-.01c.01,0,.02,0,.03.01l.4.4s.01.02.01.03c0,.01,0,.02-.01.03l-.7.7s-.02.01-.03.01c-.01,0-.02,0-.03-.01l-.4-.4s-.02-.04,0-.06l.7-.7Z"/>
      <g>
        <path class="cls-1" d="M43.05,36.96l-1.77,1.77.39.39,1.31-1.31c.13-.17.25-.35.37-.53l-.31-.31Z"/>
        <path class="cls-1" d="M44.4,35.61l-1.28,1.28.3.3c.35-.52.67-1.04.98-1.58Z"/>
      </g>
    </g>
    <g>
      <path class="cls-1" d="M38.71,41.3l-1.77,1.77.33.33s.01,0,.02-.01c.12-.08.24-.17.36-.25h0s1.44-1.44,1.44-1.44l-.39-.39Z"/>
      <path class="cls-1" d="M36.87,43.14l-1.36,1.36c.57-.32,1.13-.67,1.67-1.04l-.32-.32Z"/>
      <path class="cls-1" d="M39.17,41.76l-.89.89c.18-.14.37-.29.55-.44.04-.03.08-.06.12-.1.1-.09.21-.17.31-.26l-.09-.09Z"/>
      <path class="cls-1" d="M38.24,40.83l-1.77,1.77.39.39,1.77-1.77-.39-.39Z"/>
      <path class="cls-1" d="M36.4,42.67l-1.77,1.77.35.35.2-.11,1.61-1.61-.39-.39Z"/>
      <path class="cls-1" d="M34.56,44.51l-.94.94c.43-.19.85-.4,1.27-.62l-.32-.32Z"/>
    </g>
    <line class="cls-1" x1="38.72" y1="42.07" x2="38.42" y2="42.37"/>
    <g>
      <path class="cls-1" d="M38.71,41.3l-1.77,1.77.33.33s.01,0,.02-.01c.12-.08.24-.17.36-.25h0s1.44-1.44,1.44-1.44l-.39-.39Z"/>
      <path class="cls-1" d="M36.87,43.14l-1.36,1.36c.57-.32,1.13-.67,1.67-1.04l-.32-.32Z"/>
      <path class="cls-1" d="M39.17,41.77l-.89.89c.18-.14.37-.29.55-.44.04-.03.08-.06.12-.1.1-.09.21-.17.31-.26l-.09-.09Z"/>
      <path class="cls-1" d="M38.24,40.83l-1.77,1.77.39.39,1.77-1.77-.39-.39Z"/>
      <path class="cls-1" d="M36.4,42.67l-1.77,1.77.35.35.2-.11,1.61-1.61-.39-.39Z"/>
      <path class="cls-1" d="M34.56,44.51l-.94.94c.43-.19.85-.4,1.27-.62l-.32-.32Z"/>
    </g>
    <line class="cls-1" x1="38.42" y1="42.37" x2="38.72" y2="42.07"/>
  </g>
</svg>